<svg xmlns="http://www.w3.org/2000/svg" viewBox="0 0 441.07 156.15" width="441.07pt" height="156.15pt" stroke-linecap="round" stroke-linejoin="round"><rect width="100%" height="100%" fill="#fff"/><path d="M122.44,128.92 L122.44,18.74 L130.53,18.74 L130.53,128.92Z" fill="#fff" stroke="#000" stroke-width="0.85"/><path d="M125.03,27.73 L127.94,27.73 L127.94,56.97 L125.03,56.97Z" fill="#000" stroke="none"/><path d="M122.44,63.71 L130.53,63.71" fill="none" stroke="#000" stroke-width="0.34"/><path d="M122.44,65.31 L130.53,65.31" fill="none" stroke="#000" stroke-width="0.34"/><path d="M122.44,66.91 L130.53,66.91" fill="none" stroke="#000" stroke-width="0.34"/><path d="M122.44,68.51 L130.53,68.51" fill="none" stroke="#000" stroke-width="0.34"/><path d="M122.44,70.11 L130.53,70.11" fill="none" stroke="#000" stroke-width="0.34"/><path d="M122.44,71.71 L130.53,71.71" fill="none" stroke="#000" stroke-width="0.34"/><path d="M122.44,73.31 L130.53,73.31" fill="none" stroke="#000" stroke-width="0.34"/><path d="M122.44,74.91 L130.53,74.91" fill="none" stroke="#000" stroke-width="0.34"/><path d="M122.44,76.51 L130.53,76.51" fill="none" stroke="#000" stroke-width="0.34"/><path d="M122.44,78.11 L130.53,78.11" fill="none" stroke="#000" stroke-width="0.34"/><path d="M122.44,79.71 L130.53,79.71" fill="none" stroke="#000" stroke-width="0.34"/><path d="M122.44,81.31 L130.53,81.31" fill="none" stroke="#000" stroke-width="0.34"/><path d="M122.44,82.91 L130.53,82.91" fill="none" stroke="#000" stroke-width="0.34"/><path d="M122.44,84.51 L130.53,84.51" fill="none" stroke="#000" stroke-width="0.34"/><path d="M122.44,86.11 L130.53,86.11" fill="none" stroke="#000" stroke-width="0.34"/><path d="M122.44,87.71 L130.53,87.71" fill="none" stroke="#000" stroke-width="0.34"/><path d="M122.44,89.31 L130.53,89.31" fill="none" stroke="#000" stroke-width="0.34"/><path d="M122.44,90.91 L130.53,90.91" fill="none" stroke="#000" stroke-width="0.34"/><path d="M122.44,92.51 L130.53,92.51" fill="none" stroke="#000" stroke-width="0.34"/><path d="M122.44,94.11 L130.53,94.11" fill="none" stroke="#000" stroke-width="0.34"/><path d="M122.44,95.71 L130.53,95.71" fill="none" stroke="#000" stroke-width="0.34"/><path d="M122.44,97.31 L130.53,97.31" fill="none" stroke="#000" stroke-width="0.34"/><path d="M122.44,98.91 L130.53,98.91" fill="none" stroke="#000" stroke-width="0.34"/><path d="M122.44,100.51 L130.53,100.51" fill="none" stroke="#000" stroke-width="0.34"/><path d="M122.44,102.11 L130.53,102.11" fill="none" stroke="#000" stroke-width="0.34"/><path d="M122.44,103.71 L130.53,103.71" fill="none" stroke="#000" stroke-width="0.34"/><path d="M122.44,105.31 L130.53,105.31" fill="none" stroke="#000" stroke-width="0.34"/><path d="M122.44,106.91 L130.53,106.91" fill="none" stroke="#000" stroke-width="0.34"/><path d="M122.44,108.51 L130.53,108.51" fill="none" stroke="#000" stroke-width="0.34"/><path d="M122.44,110.11 L130.53,110.11" fill="none" stroke="#000" stroke-width="0.34"/><path d="M122.44,111.71 L130.53,111.71" fill="none" stroke="#000" stroke-width="0.34"/><path d="M122.44,113.31 L130.53,113.31" fill="none" stroke="#000" stroke-width="0.34"/><path d="M122.44,114.91 L130.53,114.91" fill="none" stroke="#000" stroke-width="0.34"/><path d="M122.44,116.51 L130.53,116.51" fill="none" stroke="#000" stroke-width="0.34"/><path d="M122.44,118.11 L130.53,118.11" fill="none" stroke="#000" stroke-width="0.34"/><path d="M122.44,119.71 L130.53,119.71" fill="none" stroke="#000" stroke-width="0.34"/><path d="M122.44,121.31 L130.53,121.31" fill="none" stroke="#000" stroke-width="0.34"/><path d="M122.44,122.91 L130.53,122.91" fill="none" stroke="#000" stroke-width="0.34"/><path d="M122.44,124.51 L130.53,124.51" fill="none" stroke="#000" stroke-width="0.34"/><path d="M122.44,126.11 L130.53,126.11" fill="none" stroke="#000" stroke-width="0.34"/><path d="M122.44,127.71 L130.53,127.71" fill="none" stroke="#000" stroke-width="0.34"/><path d="M98.83,128.92 L98.83,16.49 L108.03,16.49 L108.03,18.97 L113.23,18.97 L113.23,16.49 L122.44,16.49 L122.44,128.92Z" fill="#fff" stroke="#000" stroke-width="0.85"/><path d="M105.2,22.87 L116.06,22.87 L116.06,33.73 L105.2,33.73Z" fill="#fff" stroke="#000" stroke-width="0.85"/><circle cx="110.63" cy="28.3" r="3.91" fill="#fff" stroke="#000" stroke-width="0.85"/><circle cx="110.63" cy="28.3" r="2.93" fill="#fff" stroke="#000" stroke-width="0.5"/><path d="M104.02,50.22 L105.79,50.22 L105.79,51.99 L104.02,51.99Z" fill="#000" stroke="none"/><path d="M107.03,50.22 L108.8,50.22 L108.8,51.99 L107.03,51.99Z" fill="#000" stroke="none"/><path d="M113.46,50.22 L115.23,50.22 L115.23,51.99 L113.46,51.99Z" fill="#000" stroke="none"/><path d="M116.47,50.22 L118.25,50.22 L118.25,51.99 L116.47,51.99Z" fill="#000" stroke="none"/><path d="M104.02,56.07 L105.79,56.07 L105.79,57.84 L104.02,57.84Z" fill="#000" stroke="none"/><path d="M107.03,56.07 L108.8,56.07 L108.8,57.84 L107.03,57.84Z" fill="#000" stroke="none"/><path d="M113.46,56.07 L115.23,56.07 L115.23,57.84 L113.46,57.84Z" fill="#000" stroke="none"/><path d="M116.47,56.07 L118.25,56.07 L118.25,57.84 L116.47,57.84Z" fill="#000" stroke="none"/><path d="M104.02,61.91 L105.79,61.91 L105.79,63.68 L104.02,63.68Z" fill="#000" stroke="none"/><path d="M107.03,61.91 L108.8,61.91 L108.8,63.68 L107.03,63.68Z" fill="#000" stroke="none"/><path d="M113.46,61.91 L115.23,61.91 L115.23,63.68 L113.46,63.68Z" fill="#000" stroke="none"/><path d="M116.47,61.91 L118.25,61.91 L118.25,63.68 L116.47,63.68Z" fill="#000" stroke="none"/><path d="M104.02,67.76 L105.79,67.76 L105.79,69.53 L104.02,69.53Z" fill="#000" stroke="none"/><path d="M107.03,67.76 L108.8,67.76 L108.8,69.53 L107.03,69.53Z" fill="#000" stroke="none"/><path d="M113.46,67.76 L115.23,67.76 L115.23,69.53 L113.46,69.53Z" fill="#000" stroke="none"/><path d="M116.47,67.76 L118.25,67.76 L118.25,69.53 L116.47,69.53Z" fill="#000" stroke="none"/><path d="M104.02,73.61 L105.79,73.61 L105.79,75.38 L104.02,75.38Z" fill="#000" stroke="none"/><path d="M107.03,73.61 L108.8,73.61 L108.8,75.38 L107.03,75.38Z" fill="#000" stroke="none"/><path d="M113.46,73.61 L115.23,73.61 L115.23,75.38 L113.46,75.38Z" fill="#000" stroke="none"/><path d="M116.47,73.61 L118.25,73.61 L118.25,75.38 L116.47,75.38Z" fill="#000" stroke="none"/><path d="M104.02,79.45 L105.79,79.45 L105.79,81.22 L104.02,81.22Z" fill="#000" stroke="none"/><path d="M107.03,79.45 L108.8,79.45 L108.8,81.22 L107.03,81.22Z" fill="#000" stroke="none"/><path d="M113.46,79.45 L115.23,79.45 L115.23,81.22 L113.46,81.22Z" fill="#000" stroke="none"/><path d="M116.47,79.45 L118.25,79.45 L118.25,81.22 L116.47,81.22Z" fill="#000" stroke="none"/><path d="M104.02,85.3 L105.79,85.3 L105.79,87.07 L104.02,87.07Z" fill="#000" stroke="none"/><path d="M107.03,85.3 L108.8,85.3 L108.8,87.07 L107.03,87.07Z" fill="#000" stroke="none"/><path d="M113.46,85.3 L115.23,85.3 L115.23,87.07 L113.46,87.07Z" fill="#000" stroke="none"/><path d="M116.47,85.3 L118.25,85.3 L118.25,87.07 L116.47,87.07Z" fill="#000" stroke="none"/><path d="M104.02,91.14 L105.79,91.14 L105.79,92.91 L104.02,92.91Z" fill="#000" stroke="none"/><path d="M107.03,91.14 L108.8,91.14 L108.8,92.91 L107.03,92.91Z" fill="#000" stroke="none"/><path d="M113.46,91.14 L115.23,91.14 L115.23,92.91 L113.46,92.91Z" fill="#000" stroke="none"/><path d="M116.47,91.14 L118.25,91.14 L118.25,92.91 L116.47,92.91Z" fill="#000" stroke="none"/><path d="M104.02,96.99 L105.79,96.99 L105.79,98.76 L104.02,98.76Z" fill="#000" stroke="none"/><path d="M107.03,96.99 L108.8,96.99 L108.8,98.76 L107.03,98.76Z" fill="#000" stroke="none"/><path d="M113.46,96.99 L115.23,96.99 L115.23,98.76 L113.46,98.76Z" fill="#000" stroke="none"/><path d="M116.47,96.99 L118.25,96.99 L118.25,98.76 L116.47,98.76Z" fill="#000" stroke="none"/><path d="M104.02,102.84 L105.79,102.84 L105.79,104.61 L104.02,104.61Z" fill="#000" stroke="none"/><path d="M107.03,102.84 L108.8,102.84 L108.8,104.61 L107.03,104.61Z" fill="#000" stroke="none"/><path d="M113.46,102.84 L115.23,102.84 L115.23,104.61 L113.46,104.61Z" fill="#000" stroke="none"/><path d="M116.47,102.84 L118.25,102.84 L118.25,104.61 L116.47,104.61Z" fill="#000" stroke="none"/><path d="M104.02,108.68 L105.79,108.68 L105.79,110.45 L104.02,110.45Z" fill="#000" stroke="none"/><path d="M107.03,108.68 L108.8,108.68 L108.8,110.45 L107.03,110.45Z" fill="#000" stroke="none"/><path d="M113.46,108.68 L115.23,108.68 L115.23,110.45 L113.46,110.45Z" fill="#000" stroke="none"/><path d="M116.47,108.68 L118.25,108.68 L118.25,110.45 L116.47,110.45Z" fill="#000" stroke="none"/><path d="M104.02,114.53 L105.79,114.53 L105.79,116.3 L104.02,116.3Z" fill="#000" stroke="none"/><path d="M107.03,114.53 L108.8,114.53 L108.8,116.3 L107.03,116.3Z" fill="#000" stroke="none"/><path d="M113.46,114.53 L115.23,114.53 L115.23,116.3 L113.46,116.3Z" fill="#000" stroke="none"/><path d="M116.47,114.53 L118.25,114.53 L118.25,116.3 L116.47,116.3Z" fill="#000" stroke="none"/><path d="M104.02,120.38 L105.79,120.38 L105.79,122.15 L104.02,122.15Z" fill="#000" stroke="none"/><path d="M107.03,120.38 L108.8,120.38 L108.8,122.15 L107.03,122.15Z" fill="#000" stroke="none"/><path d="M113.46,120.38 L115.23,120.38 L115.23,122.15 L113.46,122.15Z" fill="#000" stroke="none"/><path d="M116.47,120.38 L118.25,120.38 L118.25,122.15 L116.47,122.15Z" fill="#000" stroke="none"/><path d="M-2,128.92 L-2,104.62 L219.64,104.62 L219.64,128.92Z" fill="#fff" stroke="#000" stroke-width="0.85"/><path d="M-2,109.82 L219.64,109.82" fill="none" stroke="#000" stroke-width="0.34"/><path d="M-2,115.02 L219.64,115.02" fill="none" stroke="#000" stroke-width="0.34"/><path d="M-2,120.22 L219.64,120.22" fill="none" stroke="#000" stroke-width="0.34"/><path d="M-2,125.42 L219.64,125.42" fill="none" stroke="#000" stroke-width="0.34"/><path d="M9.44,104.62 L9.44,109.82" fill="none" stroke="#000" stroke-width="0.34"/><path d="M20.88,104.62 L20.88,109.82" fill="none" stroke="#000" stroke-width="0.34"/><path d="M32.32,104.62 L32.32,109.82" fill="none" stroke="#000" stroke-width="0.34"/><path d="M43.76,104.62 L43.76,109.82" fill="none" stroke="#000" stroke-width="0.34"/><path d="M55.2,104.62 L55.2,109.82" fill="none" stroke="#000" stroke-width="0.34"/><path d="M66.64,104.62 L66.64,109.82" fill="none" stroke="#000" stroke-width="0.34"/><path d="M78.08,104.62 L78.08,109.82" fill="none" stroke="#000" stroke-width="0.34"/><path d="M89.52,104.62 L89.52,109.82" fill="none" stroke="#000" stroke-width="0.34"/><path d="M100.96,104.62 L100.96,109.82" fill="none" stroke="#000" stroke-width="0.34"/><path d="M112.4,104.62 L112.4,109.82" fill="none" stroke="#000" stroke-width="0.34"/><path d="M123.84,104.62 L123.84,109.82" fill="none" stroke="#000" stroke-width="0.34"/><path d="M135.28,104.62 L135.28,109.82" fill="none" stroke="#000" stroke-width="0.34"/><path d="M146.72,104.62 L146.72,109.82" fill="none" stroke="#000" stroke-width="0.34"/><path d="M158.16,104.62 L158.16,109.82" fill="none" stroke="#000" stroke-width="0.34"/><path d="M169.6,104.62 L169.6,109.82" fill="none" stroke="#000" stroke-width="0.34"/><path d="M181.04,104.62 L181.04,109.82" fill="none" stroke="#000" stroke-width="0.34"/><path d="M192.48,104.62 L192.48,109.82" fill="none" stroke="#000" stroke-width="0.34"/><path d="M203.92,104.62 L203.92,109.82" fill="none" stroke="#000" stroke-width="0.34"/><path d="M215.36,104.62 L215.36,109.82" fill="none" stroke="#000" stroke-width="0.34"/><path d="M15.16,109.82 L15.16,115.02" fill="none" stroke="#000" stroke-width="0.34"/><path d="M26.6,109.82 L26.6,115.02" fill="none" stroke="#000" stroke-width="0.34"/><path d="M38.04,109.82 L38.04,115.02" fill="none" stroke="#000" stroke-width="0.34"/><path d="M49.48,109.82 L49.48,115.02" fill="none" stroke="#000" stroke-width="0.34"/><path d="M60.92,109.82 L60.92,115.02" fill="none" stroke="#000" stroke-width="0.34"/><path d="M72.36,109.82 L72.36,115.02" fill="none" stroke="#000" stroke-width="0.34"/><path d="M83.8,109.82 L83.8,115.02" fill="none" stroke="#000" stroke-width="0.34"/><path d="M95.24,109.82 L95.24,115.02" fill="none" stroke="#000" stroke-width="0.34"/><path d="M106.68,109.82 L106.68,115.02" fill="none" stroke="#000" stroke-width="0.34"/><path d="M118.12,109.82 L118.12,115.02" fill="none" stroke="#000" stroke-width="0.34"/><path d="M129.56,109.82 L129.56,115.02" fill="none" stroke="#000" stroke-width="0.34"/><path d="M141,109.82 L141,115.02" fill="none" stroke="#000" stroke-width="0.34"/><path d="M152.44,109.82 L152.44,115.02" fill="none" stroke="#000" stroke-width="0.34"/><path d="M163.88,109.82 L163.88,115.02" fill="none" stroke="#000" stroke-width="0.34"/><path d="M175.32,109.82 L175.32,115.02" fill="none" stroke="#000" stroke-width="0.34"/><path d="M186.76,109.82 L186.76,115.02" fill="none" stroke="#000" stroke-width="0.34"/><path d="M198.2,109.82 L198.2,115.02" fill="none" stroke="#000" stroke-width="0.34"/><path d="M209.64,109.82 L209.64,115.02" fill="none" stroke="#000" stroke-width="0.34"/><path d="M9.44,115.02 L9.44,120.22" fill="none" stroke="#000" stroke-width="0.34"/><path d="M20.88,115.02 L20.88,120.22" fill="none" stroke="#000" stroke-width="0.34"/><path d="M32.32,115.02 L32.32,120.22" fill="none" stroke="#000" stroke-width="0.34"/><path d="M43.76,115.02 L43.76,120.22" fill="none" stroke="#000" stroke-width="0.34"/><path d="M55.2,115.02 L55.2,120.22" fill="none" stroke="#000" stroke-width="0.34"/><path d="M66.64,115.02 L66.64,120.22" fill="none" stroke="#000" stroke-width="0.34"/><path d="M78.08,115.02 L78.08,120.22" fill="none" stroke="#000" stroke-width="0.34"/><path d="M89.52,115.02 L89.52,120.22" fill="none" stroke="#000" stroke-width="0.34"/><path d="M100.96,115.02 L100.96,120.22" fill="none" stroke="#000" stroke-width="0.34"/><path d="M112.4,115.02 L112.4,120.22" fill="none" stroke="#000" stroke-width="0.34"/><path d="M123.84,115.02 L123.84,120.22" fill="none" stroke="#000" stroke-width="0.34"/><path d="M135.28,115.02 L135.28,120.22" fill="none" stroke="#000" stroke-width="0.34"/><path d="M146.72,115.02 L146.72,120.22" fill="none" stroke="#000" stroke-width="0.34"/><path d="M158.16,115.02 L158.16,120.22" fill="none" stroke="#000" stroke-width="0.34"/><path d="M169.6,115.02 L169.6,120.22" fill="none" stroke="#000" stroke-width="0.34"/><path d="M181.04,115.02 L181.04,120.22" fill="none" stroke="#000" stroke-width="0.34"/><path d="M192.48,115.02 L192.48,120.22" fill="none" stroke="#000" stroke-width="0.34"/><path d="M203.92,115.02 L203.92,120.22" fill="none" stroke="#000" stroke-width="0.34"/><path d="M215.36,115.02 L215.36,120.22" fill="none" stroke="#000" stroke-width="0.34"/><path d="M15.16,120.22 L15.16,125.42" fill="none" stroke="#000" stroke-width="0.34"/><path d="M26.6,120.22 L26.6,125.42" fill="none" stroke="#000" stroke-width="0.34"/><path d="M38.04,120.22 L38.04,125.42" fill="none" stroke="#000" stroke-width="0.34"/><path d="M49.48,120.22 L49.48,125.42" fill="none" stroke="#000" stroke-width="0.34"/><path d="M60.92,120.22 L60.92,125.42" fill="none" stroke="#000" stroke-width="0.34"/><path d="M72.36,120.22 L72.36,125.42" fill="none" stroke="#000" stroke-width="0.34"/><path d="M83.8,120.22 L83.8,125.42" fill="none" stroke="#000" stroke-width="0.34"/><path d="M95.24,120.22 L95.24,125.42" fill="none" stroke="#000" stroke-width="0.34"/><path d="M106.68,120.22 L106.68,125.42" fill="none" stroke="#000" stroke-width="0.34"/><path d="M118.12,120.22 L118.12,125.42" fill="none" stroke="#000" stroke-width="0.34"/><path d="M129.56,120.22 L129.56,125.42" fill="none" stroke="#000" stroke-width="0.34"/><path d="M141,120.22 L141,125.42" fill="none" stroke="#000" stroke-width="0.34"/><path d="M152.44,120.22 L152.44,125.42" fill="none" stroke="#000" stroke-width="0.34"/><path d="M163.88,120.22 L163.88,125.42" fill="none" stroke="#000" stroke-width="0.34"/><path d="M175.32,120.22 L175.32,125.42" fill="none" stroke="#000" stroke-width="0.34"/><path d="M186.76,120.22 L186.76,125.42" fill="none" stroke="#000" stroke-width="0.34"/><path d="M198.2,120.22 L198.2,125.42" fill="none" stroke="#000" stroke-width="0.34"/><path d="M209.64,120.22 L209.64,125.42" fill="none" stroke="#000" stroke-width="0.34"/><path d="M9.44,125.42 L9.44,128.92" fill="none" stroke="#000" stroke-width="0.34"/><path d="M20.88,125.42 L20.88,128.92" fill="none" stroke="#000" stroke-width="0.34"/><path d="M32.32,125.42 L32.32,128.92" fill="none" stroke="#000" stroke-width="0.34"/><path d="M43.76,125.42 L43.76,128.92" fill="none" stroke="#000" stroke-width="0.34"/><path d="M55.2,125.42 L55.2,128.92" fill="none" stroke="#000" stroke-width="0.34"/><path d="M66.64,125.42 L66.64,128.92" fill="none" stroke="#000" stroke-width="0.34"/><path d="M78.08,125.42 L78.08,128.92" fill="none" stroke="#000" stroke-width="0.34"/><path d="M89.52,125.42 L89.52,128.92" fill="none" stroke="#000" stroke-width="0.34"/><path d="M100.96,125.42 L100.96,128.92" fill="none" stroke="#000" stroke-width="0.34"/><path d="M112.4,125.42 L112.4,128.92" fill="none" stroke="#000" stroke-width="0.34"/><path d="M123.84,125.42 L123.84,128.92" fill="none" stroke="#000" stroke-width="0.34"/><path d="M135.28,125.42 L135.28,128.92" fill="none" stroke="#000" stroke-width="0.34"/><path d="M146.72,125.42 L146.72,128.92" fill="none" stroke="#000" stroke-width="0.34"/><path d="M158.16,125.42 L158.16,128.92" fill="none" stroke="#000" stroke-width="0.34"/><path d="M169.6,125.42 L169.6,128.92" fill="none" stroke="#000" stroke-width="0.34"/><path d="M181.04,125.42 L181.04,128.92" fill="none" stroke="#000" stroke-width="0.34"/><path d="M192.48,125.42 L192.48,128.92" fill="none" stroke="#000" stroke-width="0.34"/><path d="M203.92,125.42 L203.92,128.92" fill="none" stroke="#000" stroke-width="0.34"/><path d="M215.36,125.42 L215.36,128.92" fill="none" stroke="#000" stroke-width="0.34"/><path d="M332.87,67.38 Q337.25,69.14 340.84,73.53 Q344.43,68.74 348.82,66.76" fill="none" stroke="#000" stroke-width="0.50"/><path d="M360.95,85.42 Q363.23,85.35 365.1,87.63 Q366.96,85.14 369.24,85.2" fill="none" stroke="#000" stroke-width="0.50"/><path d="M398.77,63.25 Q403.45,61.61 407.27,66.28 Q411.1,61.18 415.78,62.95" fill="none" stroke="#000" stroke-width="0.50"/><path d="M302.23,30.92 Q305.93,31.17 308.95,34.87 Q311.98,30.83 315.67,30.53" fill="none" stroke="#000" stroke-width="0.50"/><path d="M209.04,28.44 Q212,29.57 214.43,32.54 Q216.86,29.3 219.83,28.03" fill="none" stroke="#000" stroke-width="0.50"/><path d="M362.47,25.13 Q366.86,23.68 370.45,28.08 Q374.05,23.28 378.44,24.83" fill="none" stroke="#000" stroke-width="0.50"/><path d="M335.71,22.56 Q337.91,23.3 339.71,25.51 Q341.52,23.1 343.72,22.26" fill="none" stroke="#000" stroke-width="0.50"/><path d="M0,124.92 L1.5,124.92 L3,124.92 L4.5,124.92 L6,124.92 L7.5,124.92 L9,124.92 L10.5,124.92 L12,124.92 L13.5,124.92 L15,124.92 L16.5,124.92 L18,124.92 L19.5,124.92 L21,124.92 L22.5,124.92 L24,124.92 L25.5,124.92 L27,124.92 L28.5,124.92 L30,124.92 L31.5,124.92 L33,124.92 L34.5,124.92 L36,124.92 L37.5,124.92 L39,124.92 L40.5,124.92 L42,124.92 L43.5,124.92 L45,124.92 L46.5,124.92 L48,124.92 L49.5,124.92 L51,124.92 L52.5,124.92 L54,124.92 L55.5,124.92 L57,124.92 L58.5,124.92 L60,124.92 L61.5,124.92 L63,124.92 L64.5,124.92 L66,123.86 L67.5,123.61 L69,123.61 L70.5,123.85 L72,124.83 L73.5,124.92 L75,124.92 L76.5,124.92 L78,124.92 L79.5,124.92 L81,124.92 L82.5,124.92 L84,124.92 L85.5,124.92 L87,124.92 L88.5,124.92 L90,124.92 L91.5,124.92 L93,124.92 L94.5,124.92 L96,124.92 L97.5,124.92 L99,124.92 L100.5,124.92 L102,124.92 L103.5,124.92 L105,124.92 L106.5,124.92 L108,124.92 L109.5,124.92 L111,124.92 L112.5,124.92 L114,124.92 L115.5,124.92 L117,124.92 L118.5,124.92 L120,124.92 L121.5,124.92 L123,124.92 L124.5,124.92 L126,124.92 L127.5,124.92 L129,124.92 L130.5,124.92 L132,124.92 L133.5,124.92 L135,124.92 L136.5,124.92 L138,124.92 L139.5,124.92 L141,124.92 L142.5,124.92 L144,124.92 L145.5,124.92 L147,124.92 L148.5,124.92 L150,124.92 L151.5,124.92 L153,124.92 L154.5,124.92 L156,124.92 L157.5,124.92 L159,124.92 L160.5,124.92 L162,124.92 L163.5,124.92 L165,124.92 L166.5,124.92 L168,124.92 L169.5,124.92 L171,124.92 L172.5,124.92 L174,124.92 L175.5,124.92 L177,124.92 L178.5,124.92 L180,124.92 L181.5,124.92 L183,124.92 L184.5,124.92 L186,124.92 L187.5,124.92 L189,124.92 L190.5,124.92 L192,124.92 L193.5,124.92 L195,124.92 L196.5,124.92 L198,124.92 L199.5,124.92 L201,124.92 L202.5,124.92 L204,124.92 L205.5,124.92 L207,124.92 L208.5,124.92 L210,124.92 L211.5,124.92 L213,124.92 L214.5,124.92 L216,124.92 L217.5,124.92 L219,124.92 L220.5,124.92 L222,124.92 L223.5,124.92 L225,124.92 L226.5,124.92 L228,124.92 L229.5,124.92 L231,124.92 L232.5,124.92 L234,124.92 L235.5,124.92 L237,124.92 L238.5,124.92 L240,124.92 L241.5,124.92 L243,124.92 L244.5,124.92 L246,124.92 L247.5,124.92 L249,124.92 L250.5,124.92 L252,124.92 L253.5,124.92 L255,124.92 L256.5,124.92 L258,124.92 L259.5,124.92 L261,124.92 L262.5,124.92 L264,124.92 L265.5,124.92 L267,124.92 L268.5,124.92 L270,124.92 L271.5,124.92 L273,124.92 L274.5,124.92 L276,124.92 L277.5,124.92 L279,124.92 L280.5,124.92 L282,124.92 L283.5,124.92 L285,124.92 L286.5,124.92 L288,124.92 L289.5,124.92 L291,124.92 L292.5,124.92 L294,124.92 L295.5,124.92 L297,124.92 L298.5,124.92 L300,124.92 L301.5,124.92 L303,124.92 L304.5,124.92 L306,124.92 L307.5,124.92 L309,124.92 L310.5,124.92 L312,124.92 L313.5,124.92 L315,124.92 L316.5,124.92 L318,124.92 L319.5,124.92 L321,124.92 L322.5,124.92 L324,124.92 L325.5,124.92 L327,124.92 L328.5,124.92 L330,124.92 L331.5,124.92 L333,124.92 L334.5,124.92 L336,124.92 L337.5,124.92 L339,124.92 L340.5,124.92 L342,124.92 L343.5,124.92 L345,124.92 L346.5,124.92 L348,124.92 L349.5,124.92 L351,124.92 L352.5,124.92 L354,124.92 L355.5,124.92 L357,124.92 L358.5,124.92 L360,124.92 L361.5,124.92 L363,124.92 L364.5,124.92 L366,124.92 L367.5,124.92 L369,124.92 L370.5,124.92 L372,124.92 L373.5,124.92 L375,124.92 L376.5,124.92 L378,124.92 L379.5,124.92 L381,124.92 L382.5,124.92 L384,124.92 L385.5,124.92 L387,124.92 L388.5,124.92 L390,124.92 L391.5,124.92 L393,124.92 L394.5,124.92 L396,124.92 L397.5,124.92 L399,124.92 L400.5,124.92 L402,124.92 L403.5,124.92 L405,124.92 L406.5,124.92 L408,124.92 L409.5,124.92 L411,124.92 L412.5,124.92 L414,124.92 L415.5,124.92 L417,124.92 L418.5,124.92 L420,124.92 L421.5,124.92 L423,124.92 L424.5,124.92 L426,124.92 L427.5,124.92 L429,124.92 L430.5,124.92 L432,124.92 L433.5,124.92 L435,124.92 L436.5,124.92 L438,124.92 L439.5,124.92 L441,124.92 L442.5,124.92 L441.07,560.15 L0,560.15Z" fill="#fff" stroke="none"/><path d="M0,124.92 L1.5,124.92 L3,124.92 L4.5,124.92 L6,124.92 L7.5,124.92 L9,124.92 L10.5,124.92 L12,124.92 L13.5,124.92 L15,124.92 L16.5,124.92 L18,124.92 L19.5,124.92 L21,124.92 L22.5,124.92 L24,124.92 L25.5,124.92 L27,124.92 L28.5,124.92 L30,124.92 L31.5,124.92 L33,124.92 L34.5,124.92 L36,124.92 L37.5,124.92 L39,124.92 L40.5,124.92 L42,124.92 L43.5,124.92 L45,124.92 L46.5,124.92 L48,124.92 L49.5,124.92 L51,124.92 L52.5,124.92 L54,124.92 L55.5,124.92 L57,124.92 L58.5,124.92 L60,124.92 L61.5,124.92 L63,124.92 L64.5,124.92 L66,123.86 L67.5,123.61 L69,123.61 L70.5,123.85 L72,124.83 L73.5,124.92 L75,124.92 L76.5,124.92 L78,124.92 L79.5,124.92 L81,124.92 L82.5,124.92 L84,124.92 L85.5,124.92 L87,124.92 L88.5,124.92 L90,124.92 L91.5,124.92 L93,124.92 L94.5,124.92 L96,124.92 L97.5,124.92 L99,124.92 L100.5,124.92 L102,124.92 L103.5,124.92 L105,124.92 L106.5,124.92 L108,124.92 L109.5,124.92 L111,124.92 L112.5,124.92 L114,124.92 L115.5,124.92 L117,124.92 L118.5,124.92 L120,124.92 L121.5,124.92 L123,124.92 L124.5,124.92 L126,124.92 L127.5,124.92 L129,124.92 L130.5,124.92 L132,124.92 L133.5,124.92 L135,124.92 L136.5,124.92 L138,124.92 L139.5,124.92 L141,124.92 L142.5,124.92 L144,124.92 L145.5,124.92 L147,124.92 L148.5,124.92 L150,124.92 L151.5,124.92 L153,124.92 L154.5,124.92 L156,124.92 L157.5,124.92 L159,124.92 L160.5,124.92 L162,124.92 L163.5,124.92 L165,124.92 L166.5,124.92 L168,124.92 L169.5,124.92 L171,124.92 L172.5,124.92 L174,124.92 L175.5,124.92 L177,124.92 L178.5,124.92 L180,124.92 L181.5,124.92 L183,124.92 L184.5,124.92 L186,124.92 L187.5,124.92 L189,124.92 L190.5,124.92 L192,124.92 L193.5,124.92 L195,124.92 L196.5,124.92 L198,124.92 L199.5,124.92 L201,124.92 L202.5,124.92 L204,124.92 L205.5,124.92 L207,124.92 L208.5,124.92 L210,124.92 L211.5,124.92 L213,124.92 L214.5,124.92 L216,124.92 L217.5,124.92 L219,124.92 L220.5,124.92 L222,124.92 L223.5,124.92 L225,124.92 L226.5,124.92 L228,124.92 L229.5,124.92 L231,124.92 L232.5,124.92 L234,124.92 L235.5,124.92 L237,124.92 L238.5,124.92 L240,124.92 L241.5,124.92 L243,124.92 L244.5,124.92 L246,124.92 L247.5,124.92 L249,124.92 L250.5,124.92 L252,124.92 L253.5,124.92 L255,124.92 L256.5,124.92 L258,124.92 L259.5,124.92 L261,124.92 L262.5,124.92 L264,124.92 L265.5,124.92 L267,124.92 L268.5,124.92 L270,124.92 L271.5,124.92 L273,124.92 L274.5,124.92 L276,124.92 L277.5,124.92 L279,124.92 L280.5,124.92 L282,124.92 L283.5,124.92 L285,124.92 L286.5,124.92 L288,124.92 L289.5,124.92 L291,124.92 L292.5,124.92 L294,124.92 L295.5,124.92 L297,124.92 L298.5,124.92 L300,124.92 L301.5,124.92 L303,124.92 L304.5,124.92 L306,124.92 L307.5,124.92 L309,124.92 L310.5,124.92 L312,124.92 L313.5,124.92 L315,124.92 L316.5,124.92 L318,124.92 L319.5,124.92 L321,124.92 L322.5,124.92 L324,124.92 L325.5,124.92 L327,124.92 L328.5,124.92 L330,124.92 L331.5,124.92 L333,124.92 L334.5,124.92 L336,124.92 L337.5,124.92 L339,124.92 L340.5,124.92 L342,124.92 L343.5,124.92 L345,124.92 L346.5,124.92 L348,124.92 L349.5,124.92 L351,124.92 L352.5,124.92 L354,124.92 L355.5,124.92 L357,124.92 L358.5,124.92 L360,124.92 L361.5,124.92 L363,124.92 L364.5,124.92 L366,124.92 L367.5,124.92 L369,124.92 L370.5,124.92 L372,124.92 L373.5,124.92 L375,124.92 L376.5,124.92 L378,124.92 L379.5,124.92 L381,124.92 L382.5,124.92 L384,124.92 L385.5,124.92 L387,124.92 L388.5,124.92 L390,124.92 L391.5,124.92 L393,124.92 L394.5,124.92 L396,124.92 L397.5,124.92 L399,124.92 L400.5,124.92 L402,124.92 L403.5,124.92 L405,124.92 L406.5,124.92 L408,124.92 L409.5,124.92 L411,124.92 L412.5,124.92 L414,124.92 L415.5,124.92 L417,124.92 L418.5,124.92 L420,124.92 L421.5,124.92 L423,124.92 L424.5,124.92 L426,124.92 L427.5,124.92 L429,124.92 L430.5,124.92 L432,124.92 L433.5,124.92 L435,124.92 L436.5,124.92 L438,124.92 L439.5,124.92 L441,124.92 L442.5,124.92" fill="none" stroke="#000" stroke-width="0.34"/><path d="M0,127.05 L1.5,127.05 L3,127.05 L4.5,127.05 L6,127.05 L7.5,127.05 L9,127.05 L10.5,127.05 L12,127.05 L13.5,127.05 L15,127.05 L16.5,127.05 L18,127.05 L19.5,127.05 L21,127.05 L22.5,127.05 L24,127.05 L25.5,127.05 L27,127.05 L28.5,127.05 L30,127.05 L31.5,127.05 L33,127.05 L34.5,127.05 L36,127.05 L37.5,127.05 L39,127.05 L40.5,127.05 L42,127.05 L43.5,127.05 L45,127.05 L46.5,127.05 L48,127.05 L49.5,127.05 L51,127.05 L52.5,127.05 L54,127.05 L55.5,125.58 L57,124.84 L58.5,124.33 L60,123.95 L61.5,123.64 L63,123.38 L64.5,123.18 L66,123.01 L67.5,122.88 L69,122.78 L70.5,122.7 L72,122.66 L73.5,122.64 L75,122.65 L76.5,122.68 L78,122.75 L79.5,122.84 L81,122.96 L82.5,123.11 L84,123.31 L85.5,123.54 L87,123.83 L88.5,124.19 L90,124.64 L91.5,125.05 L93,124.9 L94.5,124.79 L96,124.69 L97.5,124.61 L99,124.55 L100.5,124.51 L102,124.48 L103.5,124.47 L105,124.47 L106.5,124.49 L108,124.52 L109.5,124.57 L111,124.63 L112.5,124.71 L114,124.82 L115.5,124.94 L117,125.1 L118.5,125.28 L120,125.52 L121.5,125.83 L123,126.09 L124.5,125.67 L126,125.37 L127.5,125.15 L129,124.97 L130.5,124.83 L132,124.72 L133.5,124.64 L135,124.57 L136.5,124.53 L138,124.51 L139.5,124.5 L141,124.52 L142.5,124.55 L144,124.61 L145.5,124.68 L147,124.78 L148.5,124.91 L150,125.07 L151.5,125.28 L153,125.54 L154.5,125.9 L156,126.52 L157.5,127.05 L159,127.05 L160.5,127.05 L162,127.05 L163.5,127.05 L165,127.05 L166.5,127.05 L168,127.05 L169.5,127.05 L171,127.05 L172.5,127.05 L174,127.05 L175.5,127.05 L177,127.05 L178.5,127.05 L180,127.05 L181.5,127.05 L183,127.05 L184.5,127.05 L186,127.05 L187.5,127.05 L189,127.05 L190.5,127.05 L192,127.05 L193.5,127.05 L195,127.05 L196.5,127.05 L198,127.05 L199.5,127.05 L201,127.05 L202.5,127.05 L204,127.05 L205.5,127.05 L207,127.05 L208.5,126.48 L210,126.02 L211.5,125.76 L213,125.59 L214.5,125.47 L216,125.41 L217.5,125.39 L219,125.4 L220.5,125.46 L222,125.56 L223.5,125.72 L225,125.95 L226.5,126.35 L228,127.05 L229.5,127.05 L231,127.05 L232.5,127.05 L234,127.05 L235.5,127.05 L237,127.05 L238.5,127.05 L240,127.05 L241.5,127.05 L243,127.05 L244.5,127.05 L246,127.05 L247.5,127.05 L249,127.05 L250.5,127.05 L252,127.05 L253.5,127.05 L255,127.05 L256.5,127.05 L258,127.05 L259.5,127.05 L261,127.05 L262.5,127.05 L264,127.05 L265.5,127.05 L267,127.05 L268.5,127.05 L270,127.05 L271.5,127.05 L273,127.05 L274.5,127.05 L276,127.05 L277.5,127.05 L279,127.05 L280.5,127.05 L282,127.05 L283.5,127.05 L285,127.05 L286.5,127.05 L288,127.05 L289.5,127.05 L291,127.05 L292.5,127.05 L294,127.05 L295.5,127.05 L297,127.05 L298.5,127.05 L300,127.05 L301.5,127.05 L303,127.05 L304.5,127.05 L306,127.05 L307.5,127.05 L309,127.05 L310.5,127.05 L312,127.05 L313.5,127.05 L315,127.05 L316.5,127.05 L318,127.05 L319.5,127.05 L321,127.05 L322.5,127.05 L324,127.05 L325.5,127.05 L327,127.05 L328.5,127.05 L330,127.05 L331.5,127.05 L333,127.05 L334.5,127.05 L336,127.05 L337.5,127.05 L339,127.05 L340.5,127.05 L342,127.05 L343.5,127.05 L345,126.87 L346.5,126.78 L348,126.77 L349.5,126.81 L351,126.99 L352.5,127.05 L354,127.05 L355.5,127.05 L357,127.05 L358.5,127.05 L360,127.05 L361.5,127.05 L363,127.05 L364.5,127.05 L366,127.05 L367.5,127.05 L369,127.05 L370.5,127.05 L372,127.05 L373.5,127.05 L375,127.05 L376.5,127.05 L378,127.05 L379.5,127.05 L381,127.05 L382.5,127.05 L384,127.05 L385.5,127.05 L387,127.05 L388.5,127.05 L390,127.05 L391.5,127.05 L393,127.05 L394.5,127.05 L396,127.05 L397.5,127.05 L399,127.05 L400.5,127.05 L402,127.05 L403.5,127.05 L405,127.05 L406.5,127.05 L408,127.05 L409.5,127.05 L411,127.05 L412.5,127.05 L414,127.05 L415.5,127.05 L417,127.05 L418.5,127.05 L420,127.05 L421.5,127.05 L423,127.05 L424.5,127.05 L426,127.05 L427.5,127.05 L429,127.05 L430.5,127.05 L432,127.05 L433.5,127.05 L435,127.05 L436.5,127.05 L438,127.05 L439.5,127.05 L441,127.05 L442.5,127.05 L441.07,560.15 L0,560.15Z" fill="#fff" stroke="none"/><path d="M0,127.05 L1.5,127.05 L3,127.05 L4.5,127.05 L6,127.05 L7.5,127.05 L9,127.05 L10.5,127.05 L12,127.05 L13.5,127.05 L15,127.05 L16.5,127.05 L18,127.05 L19.5,127.05 L21,127.05 L22.5,127.05 L24,127.05 L25.5,127.05 L27,127.05 L28.5,127.05 L30,127.05 L31.5,127.05 L33,127.05 L34.5,127.05 L36,127.05 L37.5,127.05 L39,127.05 L40.5,127.05 L42,127.05 L43.5,127.05 L45,127.05 L46.5,127.05 L48,127.05 L49.5,127.05 L51,127.05 L52.5,127.05 L54,127.05 L55.5,125.58 L57,124.84 L58.5,124.33 L60,123.95 L61.5,123.64 L63,123.38 L64.5,123.18 L66,123.01 L67.5,122.88 L69,122.78 L70.5,122.7 L72,122.66 L73.5,122.64 L75,122.65 L76.5,122.68 L78,122.75 L79.5,122.84 L81,122.96 L82.5,123.11 L84,123.31 L85.5,123.54 L87,123.83 L88.5,124.19 L90,124.64 L91.5,125.05 L93,124.9 L94.5,124.79 L96,124.69 L97.5,124.61 L99,124.55 L100.5,124.51 L102,124.48 L103.5,124.47 L105,124.47 L106.5,124.49 L108,124.52 L109.5,124.57 L111,124.63 L112.5,124.71 L114,124.82 L115.5,124.94 L117,125.1 L118.5,125.28 L120,125.52 L121.5,125.83 L123,126.09 L124.5,125.67 L126,125.37 L127.5,125.15 L129,124.97 L130.5,124.83 L132,124.72 L133.5,124.64 L135,124.57 L136.5,124.53 L138,124.51 L139.5,124.5 L141,124.52 L142.5,124.55 L144,124.61 L145.5,124.68 L147,124.78 L148.5,124.91 L150,125.07 L151.5,125.28 L153,125.54 L154.5,125.9 L156,126.52 L157.5,127.05 L159,127.05 L160.5,127.05 L162,127.05 L163.5,127.05 L165,127.05 L166.5,127.05 L168,127.05 L169.5,127.05 L171,127.05 L172.5,127.05 L174,127.05 L175.5,127.05 L177,127.05 L178.5,127.05 L180,127.05 L181.5,127.05 L183,127.05 L184.5,127.05 L186,127.05 L187.5,127.05 L189,127.05 L190.5,127.05 L192,127.05 L193.5,127.05 L195,127.05 L196.5,127.05 L198,127.05 L199.5,127.05 L201,127.05 L202.5,127.05 L204,127.05 L205.5,127.05 L207,127.05 L208.5,126.48 L210,126.02 L211.5,125.76 L213,125.59 L214.5,125.47 L216,125.41 L217.5,125.39 L219,125.4 L220.5,125.46 L222,125.56 L223.5,125.72 L225,125.95 L226.5,126.35 L228,127.05 L229.5,127.05 L231,127.05 L232.5,127.05 L234,127.05 L235.5,127.05 L237,127.05 L238.5,127.05 L240,127.05 L241.5,127.05 L243,127.05 L244.5,127.05 L246,127.05 L247.5,127.05 L249,127.05 L250.5,127.05 L252,127.05 L253.5,127.05 L255,127.05 L256.5,127.05 L258,127.05 L259.5,127.05 L261,127.05 L262.5,127.05 L264,127.05 L265.5,127.05 L267,127.05 L268.5,127.05 L270,127.05 L271.5,127.05 L273,127.05 L274.5,127.05 L276,127.05 L277.5,127.05 L279,127.05 L280.5,127.05 L282,127.05 L283.5,127.05 L285,127.05 L286.5,127.05 L288,127.05 L289.5,127.05 L291,127.05 L292.5,127.05 L294,127.05 L295.5,127.05 L297,127.05 L298.5,127.05 L300,127.05 L301.5,127.05 L303,127.05 L304.5,127.05 L306,127.05 L307.5,127.05 L309,127.05 L310.5,127.05 L312,127.05 L313.5,127.05 L315,127.05 L316.5,127.05 L318,127.05 L319.5,127.05 L321,127.05 L322.5,127.05 L324,127.05 L325.5,127.05 L327,127.05 L328.5,127.05 L330,127.05 L331.5,127.05 L333,127.05 L334.5,127.05 L336,127.05 L337.5,127.05 L339,127.05 L340.5,127.05 L342,127.05 L343.5,127.05 L345,126.87 L346.5,126.78 L348,126.77 L349.5,126.81 L351,126.99 L352.5,127.05 L354,127.05 L355.5,127.05 L357,127.05 L358.5,127.05 L360,127.05 L361.5,127.05 L363,127.05 L364.5,127.05 L366,127.05 L367.5,127.05 L369,127.05 L370.5,127.05 L372,127.05 L373.5,127.05 L375,127.05 L376.5,127.05 L378,127.05 L379.5,127.05 L381,127.05 L382.5,127.05 L384,127.05 L385.5,127.05 L387,127.05 L388.5,127.05 L390,127.05 L391.5,127.05 L393,127.05 L394.5,127.05 L396,127.05 L397.5,127.05 L399,127.05 L400.5,127.05 L402,127.05 L403.5,127.05 L405,127.05 L406.5,127.05 L408,127.05 L409.5,127.05 L411,127.05 L412.5,127.05 L414,127.05 L415.5,127.05 L417,127.05 L418.5,127.05 L420,127.05 L421.5,127.05 L423,127.05 L424.5,127.05 L426,127.05 L427.5,127.05 L429,127.05 L430.5,127.05 L432,127.05 L433.5,127.05 L435,127.05 L436.5,127.05 L438,127.05 L439.5,127.05 L441,127.05 L442.5,127.05" fill="none" stroke="#000" stroke-width="0.42"/><path d="M0,126.69 L1.5,127.37 L3,128.4 L4.5,128.42 L6,127.71 L7.5,127.06 L9,126.25 L10.5,125.27 L12,124.63 L13.5,124.23 L15,124.02 L16.5,123.98 L18,124.12 L19.5,124.43 L21,124.56 L22.5,124.46 L24,124.38 L25.5,124.33 L27,124.29 L28.5,124.28 L30,124.29 L31.5,124.32 L33,124.38 L34.5,124.45 L36,124.55 L37.5,124.68 L39,124.83 L40.5,125.01 L42,125.23 L43.5,125.26 L45,125.38 L46.5,125.63 L48,126.02 L49.5,126.61 L51,127.52 L52.5,128.56 L54,129.13 L55.5,128.87 L57,128.13 L58.5,127.63 L60,127.16 L61.5,126.93 L63,126.68 L64.5,126.47 L66,126.3 L67.5,126.17 L69,126.07 L70.5,126 L72,125.95 L73.5,125.93 L75,125.94 L76.5,125.98 L78,126.04 L79.5,126.13 L81,126.25 L82.5,126.41 L84,126.6 L85.5,126.83 L87,126.81 L88.5,126.75 L90,126.52 L91.5,126.35 L93,126.23 L94.5,126.16 L96,126.14 L97.5,126.17 L99,126.24 L100.5,126.37 L102,126.41 L103.5,126.1 L105,125.84 L106.5,125.65 L108,125.51 L109.5,125.43 L111,125.4 L112.5,125.41 L114,125.48 L115.5,125.59 L117,125.77 L118.5,126 L120,126.31 L121.5,126.7 L123,127.23 L124.5,127.09 L126,126.95 L127.5,126.84 L129,126.74 L130.5,126.65 L132,126.59 L133.5,126.53 L135,126.49 L136.5,126.46 L138,126.45 L139.5,126.45 L141,126.46 L142.5,126.48 L144,126.51 L145.5,126.56 L147,126.63 L148.5,126.7 L150,126.79 L151.5,126.9 L153,127.03 L154.5,127.18 L156,127.35 L157.5,127.55 L159,127.78 L160.5,128.05 L162,128.39 L163.5,128.84 L165,129.55 L166.5,130.34 L168,130.34 L169.5,130.34 L171,130.34 L172.5,130.34 L174,130.34 L175.5,130.34 L177,130.34 L178.5,130.34 L180,130.34 L181.5,130.34 L183,130.34 L184.5,130.34 L186,130.34 L187.5,130.34 L189,130.34 L190.5,130.34 L192,130.34 L193.5,130.34 L195,130.34 L196.5,130.34 L198,130.34 L199.5,130.34 L201,130.34 L202.5,130.34 L204,130.34 L205.5,130.34 L207,130.34 L208.5,130.34 L210,130.34 L211.5,130.34 L213,130.34 L214.5,130.34 L216,130.34 L217.5,130.34 L219,130.34 L220.5,130.34 L222,130.34 L223.5,130.34 L225,130.34 L226.5,130.34 L228,130.34 L229.5,130.34 L231,130.34 L232.5,130.34 L234,130.34 L235.5,130.34 L237,130.34 L238.5,130.34 L240,130.34 L241.5,130.34 L243,130.34 L244.5,130.34 L246,130.34 L247.5,130.34 L249,130.34 L250.5,130.34 L252,130.34 L253.5,130.34 L255,130.34 L256.5,130.34 L258,130.34 L259.5,130.34 L261,130.34 L262.5,130.34 L264,130.34 L265.5,130.34 L267,130.34 L268.5,130.34 L270,130.34 L271.5,130.34 L273,130.34 L274.5,130.34 L276,130.34 L277.5,130.34 L279,130.34 L280.5,130.34 L282,130.34 L283.5,130.34 L285,130.34 L286.5,130.34 L288,130.34 L289.5,130.34 L291,130.34 L292.5,130.34 L294,130.34 L295.5,130.34 L297,130.34 L298.5,130.34 L300,130.34 L301.5,129.55 L303,129.19 L304.5,128.94 L306,128.73 L307.5,128.56 L309,128.41 L310.5,128.28 L312,128.17 L313.5,128.07 L315,127.98 L316.5,127.9 L318,127.83 L319.5,127.77 L321,127.71 L322.5,127.67 L324,127.63 L325.5,127.6 L327,127.57 L328.5,127.56 L330,127.54 L331.5,127.54 L333,127.54 L334.5,127.54 L336,127.55 L337.5,127.57 L339,127.6 L340.5,127.63 L342,127.67 L343.5,127.67 L345,127.66 L346.5,127.65 L348,127.65 L349.5,127.65 L351,127.66 L352.5,127.68 L354,127.7 L355.5,127.72 L357,127.76 L358.5,127.8 L360,127.72 L361.5,126.77 L363,126.07 L364.5,125.51 L366,125.05 L367.5,124.51 L369,123.59 L370.5,122.98 L372,122.23 L373.5,121.67 L375,121.31 L376.5,121.11 L378,121.07 L379.5,121.18 L381,121.46 L382.5,121.92 L384,122.58 L385.5,122.91 L387,122.32 L388.5,121.97 L390,121.84 L391.5,121.91 L393,122.2 L394.5,122.72 L396,123.52 L397.5,124.74 L399,125.81 L400.5,126.44 L402,127.26 L403.5,128.52 L405,130.34 L406.5,130.34 L408,130.34 L409.5,130.34 L411,130.34 L412.5,130.34 L414,130.34 L415.5,130.34 L417,130.34 L418.5,130.34 L420,130.34 L421.5,130.34 L423,130.34 L424.5,130.34 L426,130.34 L427.5,130.34 L429,130.34 L430.5,130.34 L432,130.34 L433.5,130.34 L435,129.9 L436.5,128.74 L438,128.15 L439.5,127.72 L441,127.37 L442.5,127.08 L441.07,560.15 L0,560.15Z" fill="#fff" stroke="none"/><path d="M0,126.69 L1.5,127.37 L3,128.4 L4.5,128.42 L6,127.71 L7.5,127.06 L9,126.25 L10.5,125.27 L12,124.63 L13.5,124.23 L15,124.02 L16.5,123.98 L18,124.12 L19.5,124.43 L21,124.56 L22.5,124.46 L24,124.38 L25.5,124.33 L27,124.29 L28.5,124.28 L30,124.29 L31.5,124.32 L33,124.38 L34.5,124.45 L36,124.55 L37.5,124.68 L39,124.83 L40.5,125.01 L42,125.23 L43.5,125.26 L45,125.38 L46.5,125.63 L48,126.02 L49.5,126.61 L51,127.52 L52.5,128.56 L54,129.13 L55.5,128.87 L57,128.13 L58.5,127.63 L60,127.16 L61.5,126.93 L63,126.68 L64.5,126.47 L66,126.3 L67.5,126.17 L69,126.07 L70.5,126 L72,125.95 L73.5,125.93 L75,125.94 L76.5,125.98 L78,126.04 L79.5,126.13 L81,126.25 L82.5,126.41 L84,126.6 L85.5,126.83 L87,126.81 L88.5,126.75 L90,126.52 L91.5,126.35 L93,126.23 L94.5,126.16 L96,126.14 L97.5,126.17 L99,126.24 L100.5,126.37 L102,126.41 L103.5,126.1 L105,125.84 L106.5,125.65 L108,125.51 L109.5,125.43 L111,125.4 L112.5,125.41 L114,125.48 L115.5,125.59 L117,125.77 L118.5,126 L120,126.31 L121.5,126.7 L123,127.23 L124.5,127.09 L126,126.95 L127.5,126.84 L129,126.74 L130.5,126.65 L132,126.59 L133.5,126.53 L135,126.49 L136.5,126.46 L138,126.45 L139.5,126.45 L141,126.46 L142.5,126.48 L144,126.51 L145.5,126.56 L147,126.63 L148.5,126.7 L150,126.79 L151.5,126.9 L153,127.03 L154.5,127.18 L156,127.35 L157.5,127.55 L159,127.78 L160.5,128.05 L162,128.39 L163.5,128.84 L165,129.55 L166.5,130.34 L168,130.34 L169.5,130.34 L171,130.34 L172.5,130.34 L174,130.34 L175.5,130.34 L177,130.34 L178.5,130.34 L180,130.34 L181.5,130.34 L183,130.34 L184.5,130.34 L186,130.34 L187.5,130.34 L189,130.34 L190.5,130.34 L192,130.34 L193.5,130.34 L195,130.34 L196.5,130.34 L198,130.34 L199.5,130.34 L201,130.34 L202.5,130.34 L204,130.34 L205.5,130.34 L207,130.34 L208.5,130.34 L210,130.34 L211.5,130.34 L213,130.34 L214.5,130.34 L216,130.34 L217.5,130.34 L219,130.34 L220.5,130.34 L222,130.34 L223.5,130.34 L225,130.34 L226.5,130.34 L228,130.34 L229.5,130.34 L231,130.34 L232.5,130.34 L234,130.34 L235.5,130.34 L237,130.34 L238.5,130.34 L240,130.34 L241.5,130.34 L243,130.34 L244.5,130.34 L246,130.34 L247.5,130.34 L249,130.34 L250.5,130.34 L252,130.34 L253.5,130.34 L255,130.34 L256.5,130.34 L258,130.34 L259.5,130.34 L261,130.34 L262.5,130.34 L264,130.34 L265.5,130.34 L267,130.34 L268.5,130.34 L270,130.34 L271.5,130.34 L273,130.34 L274.5,130.34 L276,130.34 L277.5,130.34 L279,130.34 L280.5,130.34 L282,130.34 L283.5,130.34 L285,130.34 L286.5,130.34 L288,130.34 L289.5,130.34 L291,130.34 L292.5,130.34 L294,130.34 L295.5,130.34 L297,130.34 L298.5,130.34 L300,130.34 L301.5,129.55 L303,129.19 L304.5,128.94 L306,128.73 L307.5,128.56 L309,128.41 L310.5,128.28 L312,128.17 L313.5,128.07 L315,127.98 L316.5,127.9 L318,127.83 L319.5,127.77 L321,127.71 L322.5,127.67 L324,127.63 L325.5,127.6 L327,127.57 L328.5,127.56 L330,127.54 L331.5,127.54 L333,127.54 L334.5,127.54 L336,127.55 L337.5,127.57 L339,127.6 L340.5,127.63 L342,127.67 L343.5,127.67 L345,127.66 L346.5,127.65 L348,127.65 L349.5,127.65 L351,127.66 L352.5,127.68 L354,127.7 L355.5,127.72 L357,127.76 L358.5,127.8 L360,127.72 L361.5,126.77 L363,126.07 L364.5,125.51 L366,125.05 L367.5,124.51 L369,123.59 L370.5,122.98 L372,122.23 L373.5,121.67 L375,121.31 L376.5,121.11 L378,121.07 L379.5,121.18 L381,121.46 L382.5,121.92 L384,122.58 L385.5,122.91 L387,122.32 L388.5,121.97 L390,121.84 L391.5,121.91 L393,122.2 L394.5,122.72 L396,123.52 L397.5,124.74 L399,125.81 L400.5,126.44 L402,127.26 L403.5,128.52 L405,130.34 L406.5,130.34 L408,130.34 L409.5,130.34 L411,130.34 L412.5,130.34 L414,130.34 L415.5,130.34 L417,130.34 L418.5,130.34 L420,130.34 L421.5,130.34 L423,130.34 L424.5,130.34 L426,130.34 L427.5,130.34 L429,130.34 L430.5,130.34 L432,130.34 L433.5,130.34 L435,129.9 L436.5,128.74 L438,128.15 L439.5,127.72 L441,127.37 L442.5,127.08" fill="none" stroke="#000" stroke-width="0.51"/><path d="M0,132.58 L1.5,132.95 L3,133.51 L4.5,134.29 L6,134.29 L7.5,134.29 L9,134.29 L10.5,134.1 L12,133.52 L13.5,133.24 L15,133.04 L16.5,132.89 L18,132.77 L19.5,132.68 L21,132.6 L22.5,132.55 L24,132.51 L25.5,132.48 L27,132.47 L28.5,132.48 L30,132.49 L31.5,132.48 L33,132.13 L34.5,131.85 L36,131.6 L37.5,131.38 L39,131.19 L40.5,131.01 L42,130.85 L43.5,130.7 L45,130.57 L46.5,130.45 L48,130.33 L49.5,130.23 L51,130.13 L52.5,130.04 L54,129.96 L55.5,129.89 L57,129.82 L58.5,129.76 L60,129.7 L61.5,129.65 L63,129.61 L64.5,129.57 L66,129.54 L67.5,129.51 L69,129.15 L70.5,128.73 L72,128.4 L73.5,128.15 L75,127.96 L76.5,127.82 L78,127.75 L79.5,127.72 L81,127.76 L82.5,127.84 L84,127.98 L85.5,128.18 L87,128.45 L88.5,128.66 L90,128.4 L91.5,128.16 L93,127.95 L94.5,127.75 L96,127.57 L97.5,127.41 L99,127.27 L100.5,127.13 L102,127.02 L103.5,126.91 L105,126.82 L106.5,126.74 L108,126.68 L109.5,126.62 L111,126.58 L112.5,126.54 L114,126.34 L115.5,126.1 L117,125.8 L118.5,125.55 L120,125.35 L121.5,125.2 L123,125.09 L124.5,125.02 L126,125 L127.5,125.02 L129,125.09 L130.5,125.19 L132,125.34 L133.5,125.54 L135,125.79 L136.5,126.1 L138,126.46 L139.5,126.9 L141,127.42 L142.5,128.04 L144,128.61 L145.5,128.9 L147,129.16 L148.5,129.19 L150,129.23 L151.5,129.28 L153,129.34 L154.5,129.41 L156,129.5 L157.5,129.61 L159,129.73 L160.5,129.86 L162,130.02 L163.5,130.19 L165,130.39 L166.5,130.62 L168,130.88 L169.5,131.17 L171,131.53 L172.5,131.96 L174,132.52 L175.5,133.45 L177,133.06 L178.5,132.6 L180,132.27 L181.5,132 L183,131.78 L184.5,131.59 L186,131.43 L187.5,131.29 L189,131.17 L190.5,131.07 L192,130.98 L193.5,130.91 L195,130.85 L196.5,130.81 L198,130.78 L199.5,130.76 L201,130.75 L202.5,130.76 L204,130.78 L205.5,130.81 L207,130.82 L208.5,130.62 L210,130.49 L211.5,130.43 L213,130.43 L214.5,130.5 L216,130.63 L217.5,130.85 L219,131.15 L220.5,131.58 L222,132.2 L223.5,132.58 L225,133.02 L226.5,133.85 L228,134.29 L229.5,134.29 L231,134.29 L232.5,134.29 L234,134.29 L235.5,134.29 L237,134.29 L238.5,134.29 L240,134.29 L241.5,134.29 L243,134.29 L244.5,134.29 L246,134.29 L247.5,134.29 L249,134.29 L250.5,134.29 L252,134.29 L253.5,134.29 L255,134.29 L256.5,134.29 L258,134.29 L259.5,134.29 L261,134.29 L262.5,134.29 L264,134.29 L265.5,134.29 L267,134.29 L268.5,134.29 L270,134.29 L271.5,134.29 L273,134.29 L274.5,134.29 L276,134.29 L277.5,134.29 L279,134.29 L280.5,134.29 L282,134.29 L283.5,134.29 L285,134.29 L286.5,134.29 L288,134.29 L289.5,133.54 L291,133.06 L292.5,132.73 L294,132.46 L295.5,132.24 L297,132.05 L298.5,131.88 L300,131.73 L301.5,131.59 L303,131.47 L304.5,131.35 L306,131.25 L307.5,131.15 L309,131.07 L310.5,130.99 L312,130.92 L313.5,130.85 L315,130.79 L316.5,130.74 L318,130.69 L319.5,130.65 L321,130.61 L322.5,130.58 L324,130.55 L325.5,130.52 L327,130.51 L328.5,130.49 L330,130.48 L331.5,130.48 L333,130.48 L334.5,130.48 L336,130.49 L337.5,130.5 L339,130.52 L340.5,130.55 L342,130.57 L343.5,130.61 L345,130.64 L346.5,130.68 L348,130.73 L349.5,130.79 L351,130.85 L352.5,130.91 L354,130.98 L355.5,131.06 L357,131.15 L358.5,131.24 L360,131.34 L361.5,131.46 L363,131.58 L364.5,131.72 L366,131.87 L367.5,132.03 L369,132.22 L370.5,132.44 L372,132.7 L373.5,133.03 L375,133.49 L376.5,134.29 L378,134.29 L379.5,134.29 L381,134.29 L382.5,134.29 L384,134.29 L385.5,134.29 L387,134.29 L388.5,134.29 L390,134.29 L391.5,134.29 L393,134.29 L394.5,134.29 L396,134.29 L397.5,134.29 L399,134.29 L400.5,134.29 L402,134.29 L403.5,134.29 L405,134.29 L406.5,134.29 L408,134.29 L409.5,134.29 L411,134.29 L412.5,133.26 L414,132.64 L415.5,132.22 L417,131.89 L418.5,131.62 L420,131.39 L421.5,131.19 L423,131.01 L424.5,130.86 L426,130.73 L427.5,130.61 L429,130.51 L430.5,130.42 L432,130.35 L433.5,130.29 L435,130.24 L436.5,130.2 L438,130.18 L439.5,130.16 L441,130.16 L442.5,130.17 L441.07,560.15 L0,560.15Z" fill="#fff" stroke="none"/><path d="M0,132.58 L1.5,132.95 L3,133.51 L4.5,134.29 L6,134.29 L7.5,134.29 L9,134.29 L10.5,134.1 L12,133.52 L13.5,133.24 L15,133.04 L16.5,132.89 L18,132.77 L19.5,132.68 L21,132.6 L22.5,132.55 L24,132.51 L25.5,132.48 L27,132.47 L28.5,132.48 L30,132.49 L31.5,132.48 L33,132.13 L34.5,131.85 L36,131.6 L37.5,131.38 L39,131.19 L40.5,131.01 L42,130.85 L43.5,130.7 L45,130.57 L46.5,130.45 L48,130.33 L49.5,130.23 L51,130.13 L52.5,130.04 L54,129.96 L55.5,129.89 L57,129.82 L58.5,129.76 L60,129.7 L61.5,129.65 L63,129.61 L64.5,129.57 L66,129.54 L67.5,129.51 L69,129.15 L70.5,128.73 L72,128.4 L73.5,128.15 L75,127.96 L76.5,127.82 L78,127.75 L79.5,127.72 L81,127.76 L82.5,127.84 L84,127.98 L85.5,128.18 L87,128.45 L88.5,128.66 L90,128.4 L91.5,128.16 L93,127.95 L94.5,127.75 L96,127.57 L97.5,127.41 L99,127.27 L100.5,127.13 L102,127.02 L103.5,126.91 L105,126.82 L106.5,126.74 L108,126.68 L109.5,126.62 L111,126.58 L112.5,126.54 L114,126.34 L115.5,126.1 L117,125.8 L118.5,125.55 L120,125.35 L121.5,125.2 L123,125.09 L124.5,125.02 L126,125 L127.5,125.02 L129,125.09 L130.5,125.19 L132,125.34 L133.5,125.54 L135,125.79 L136.5,126.1 L138,126.46 L139.5,126.9 L141,127.42 L142.5,128.04 L144,128.61 L145.5,128.9 L147,129.16 L148.5,129.19 L150,129.23 L151.5,129.28 L153,129.34 L154.5,129.41 L156,129.5 L157.5,129.61 L159,129.73 L160.5,129.86 L162,130.02 L163.5,130.19 L165,130.39 L166.5,130.62 L168,130.88 L169.5,131.17 L171,131.53 L172.5,131.96 L174,132.52 L175.5,133.45 L177,133.06 L178.5,132.6 L180,132.27 L181.5,132 L183,131.78 L184.5,131.59 L186,131.43 L187.5,131.29 L189,131.17 L190.5,131.07 L192,130.98 L193.5,130.91 L195,130.85 L196.5,130.81 L198,130.78 L199.5,130.76 L201,130.75 L202.5,130.76 L204,130.78 L205.5,130.81 L207,130.82 L208.5,130.62 L210,130.49 L211.5,130.43 L213,130.43 L214.5,130.5 L216,130.63 L217.5,130.85 L219,131.15 L220.5,131.58 L222,132.2 L223.5,132.58 L225,133.02 L226.5,133.85 L228,134.29 L229.5,134.29 L231,134.29 L232.5,134.29 L234,134.29 L235.5,134.29 L237,134.29 L238.5,134.29 L240,134.29 L241.5,134.29 L243,134.29 L244.5,134.29 L246,134.29 L247.5,134.29 L249,134.29 L250.5,134.29 L252,134.29 L253.5,134.29 L255,134.29 L256.5,134.29 L258,134.29 L259.5,134.29 L261,134.29 L262.5,134.29 L264,134.29 L265.5,134.29 L267,134.29 L268.5,134.29 L270,134.29 L271.5,134.29 L273,134.29 L274.5,134.29 L276,134.29 L277.5,134.29 L279,134.29 L280.5,134.29 L282,134.29 L283.5,134.29 L285,134.29 L286.5,134.29 L288,134.29 L289.5,133.54 L291,133.06 L292.5,132.73 L294,132.46 L295.5,132.24 L297,132.05 L298.5,131.88 L300,131.73 L301.5,131.59 L303,131.47 L304.5,131.35 L306,131.25 L307.5,131.15 L309,131.07 L310.5,130.99 L312,130.92 L313.5,130.85 L315,130.79 L316.5,130.74 L318,130.69 L319.5,130.65 L321,130.61 L322.5,130.58 L324,130.55 L325.5,130.52 L327,130.51 L328.5,130.49 L330,130.48 L331.5,130.48 L333,130.48 L334.5,130.48 L336,130.49 L337.5,130.5 L339,130.52 L340.5,130.55 L342,130.57 L343.5,130.61 L345,130.64 L346.5,130.68 L348,130.73 L349.5,130.79 L351,130.85 L352.5,130.91 L354,130.98 L355.5,131.06 L357,131.15 L358.5,131.24 L360,131.34 L361.5,131.46 L363,131.58 L364.5,131.72 L366,131.87 L367.5,132.03 L369,132.22 L370.5,132.44 L372,132.7 L373.5,133.03 L375,133.49 L376.5,134.29 L378,134.29 L379.5,134.29 L381,134.29 L382.5,134.29 L384,134.29 L385.5,134.29 L387,134.29 L388.5,134.29 L390,134.29 L391.5,134.29 L393,134.29 L394.5,134.29 L396,134.29 L397.5,134.29 L399,134.29 L400.5,134.29 L402,134.29 L403.5,134.29 L405,134.29 L406.5,134.29 L408,134.29 L409.5,134.29 L411,134.29 L412.5,133.26 L414,132.64 L415.5,132.22 L417,131.89 L418.5,131.62 L420,131.39 L421.5,131.19 L423,131.01 L424.5,130.86 L426,130.73 L427.5,130.61 L429,130.51 L430.5,130.42 L432,130.35 L433.5,130.29 L435,130.24 L436.5,130.2 L438,130.18 L439.5,130.16 L441,130.16 L442.5,130.17" fill="none" stroke="#000" stroke-width="0.59"/><path d="M0,136.2 L1.5,136.54 L3,136.97 L4.5,137.59 L6,138.74 L7.5,138.74 L9,138.74 L10.5,138.74 L12,138.74 L13.5,138.74 L15,138.44 L16.5,137.63 L18,137.21 L19.5,136.89 L21,136.62 L22.5,136.39 L24,136.19 L25.5,136.01 L27,135.84 L28.5,135.69 L30,135.55 L31.5,135.43 L33,135.31 L34.5,135.2 L36,135.09 L37.5,135 L39,134.91 L40.5,134.82 L42,134.75 L43.5,134.67 L45,134.61 L46.5,134.54 L48,134.49 L49.5,134.43 L51,134.38 L52.5,134.34 L54,134.3 L55.5,134.26 L57,134.23 L58.5,134.2 L60,134.17 L61.5,134.15 L63,134.13 L64.5,134.11 L66,134.1 L67.5,134.09 L69,134.09 L70.5,134.08 L72,134.09 L73.5,134.09 L75,134.1 L76.5,134.11 L78,134.13 L79.5,134.14 L81,134.17 L82.5,134.19 L84,133.94 L85.5,133.7 L87,133.5 L88.5,133.36 L90,133.26 L91.5,133.2 L93,133.17 L94.5,133.19 L96,133.24 L97.5,133.33 L99,133.47 L100.5,133.65 L102,133.88 L103.5,134.17 L105,134.52 L106.5,134.45 L108,134.11 L109.5,133.81 L111,133.54 L112.5,133.29 L114,133.07 L115.5,132.86 L117,132.67 L118.5,132.49 L120,132.33 L121.5,132.19 L123,132.05 L124.5,131.93 L126,131.81 L127.5,131.71 L129,131.62 L130.5,131.54 L132,131.46 L133.5,131.4 L135,131.03 L136.5,130.57 L138,130.2 L139.5,129.92 L141,129.7 L142.5,129.55 L144,129.46 L145.5,129.43 L147,129.46 L148.5,129.56 L150,129.71 L151.5,129.93 L153,130.23 L154.5,130.6 L156,131.06 L157.5,131.49 L159,131.56 L160.5,131.65 L162,131.74 L163.5,131.85 L165,131.97 L166.5,132.09 L168,132.23 L169.5,132.38 L171,132.55 L172.5,132.73 L174,132.92 L175.5,133.14 L177,133.37 L178.5,133.62 L180,133.91 L181.5,134.22 L183,134.57 L184.5,134.96 L186,135.39 L187.5,135.27 L189,135.16 L190.5,135.07 L192,135 L193.5,134.94 L195,134.81 L196.5,134.44 L198,134.16 L199.5,133.96 L201,133.82 L202.5,133.75 L204,133.73 L205.5,133.78 L207,133.88 L208.5,134.05 L210,134.29 L211.5,134.61 L213,135.04 L214.5,135.26 L216,135.03 L217.5,134.77 L219,134.53 L220.5,134.31 L222,134.11 L223.5,133.93 L225,133.76 L226.5,133.6 L228,133.45 L229.5,133.31 L231,133.18 L232.5,133.06 L234,132.95 L235.5,132.85 L237,132.75 L238.5,132.66 L240,132.58 L241.5,132.51 L243,132.44 L244.5,132.37 L246,132.31 L247.5,132.26 L249,132.22 L250.5,132.17 L252,132.14 L253.5,132.11 L255,132.08 L256.5,132.06 L258,132.05 L259.5,132.03 L261,132.03 L262.5,132.03 L264,132.03 L265.5,132.04 L267,132.06 L268.5,132.08 L270,132.1 L271.5,132.13 L273,132.16 L274.5,132.21 L276,132.25 L277.5,132.3 L279,132.36 L280.5,132.42 L282,132.49 L283.5,132.56 L285,132.64 L286.5,132.73 L288,132.83 L289.5,132.93 L291,133.04 L292.5,133.16 L294,133.28 L295.5,133.42 L297,133.56 L298.5,133.72 L300,133.89 L301.5,134.07 L303,134.27 L304.5,134.48 L306,134.71 L307.5,134.97 L309,135.25 L310.5,135.57 L312,135.94 L313.5,136.37 L315,136.93 L316.5,137.81 L318,138.74 L319.5,138.74 L321,138.74 L322.5,138.74 L324,138.74 L325.5,138.74 L327,138.74 L328.5,138.74 L330,138.74 L331.5,138.74 L333,138.74 L334.5,138.74 L336,138.74 L337.5,138.74 L339,138.74 L340.5,138.74 L342,138.74 L343.5,138.74 L345,138.74 L346.5,138.74 L348,138.74 L349.5,138.74 L351,138.74 L352.5,138.74 L354,138.74 L355.5,138.74 L357,138.74 L358.5,138.74 L360,138.74 L361.5,138.74 L363,138.74 L364.5,138.74 L366,138.74 L367.5,138.74 L369,138.74 L370.5,138.74 L372,138.74 L373.5,138.74 L375,138.74 L376.5,138.74 L378,138.74 L379.5,138.74 L381,138.74 L382.5,138.74 L384,138.74 L385.5,138.74 L387,138.74 L388.5,138.74 L390,138.74 L391.5,138.74 L393,138.74 L394.5,138.74 L396,138.74 L397.5,138.74 L399,138.74 L400.5,137.7 L402,136.88 L403.5,136.35 L405,135.93 L406.5,135.58 L408,135.27 L409.5,135.01 L411,134.77 L412.5,134.56 L414,134.36 L415.5,134.19 L417,134.03 L418.5,133.88 L420,133.75 L421.5,133.63 L423,133.53 L424.5,133.43 L426,133.34 L427.5,133.26 L429,133.2 L430.5,133.14 L432,133.09 L433.5,133.04 L435,133.01 L436.5,132.98 L438,132.85 L439.5,132.48 L441,132.19 L442.5,131.96 L441.07,560.15 L0,560.15Z" fill="#fff" stroke="none"/><path d="M0,136.2 L1.5,136.54 L3,136.97 L4.5,137.59 L6,138.74 L7.5,138.74 L9,138.74 L10.5,138.74 L12,138.74 L13.5,138.74 L15,138.44 L16.5,137.63 L18,137.21 L19.5,136.89 L21,136.62 L22.5,136.39 L24,136.19 L25.5,136.01 L27,135.84 L28.5,135.69 L30,135.55 L31.5,135.43 L33,135.31 L34.5,135.2 L36,135.09 L37.5,135 L39,134.91 L40.5,134.82 L42,134.75 L43.5,134.67 L45,134.61 L46.5,134.54 L48,134.49 L49.5,134.43 L51,134.38 L52.5,134.34 L54,134.3 L55.5,134.26 L57,134.23 L58.5,134.2 L60,134.17 L61.5,134.15 L63,134.13 L64.5,134.11 L66,134.1 L67.5,134.09 L69,134.09 L70.5,134.08 L72,134.09 L73.5,134.09 L75,134.1 L76.5,134.11 L78,134.13 L79.5,134.14 L81,134.17 L82.5,134.19 L84,133.94 L85.5,133.7 L87,133.5 L88.5,133.36 L90,133.26 L91.5,133.2 L93,133.17 L94.5,133.19 L96,133.24 L97.5,133.33 L99,133.47 L100.5,133.65 L102,133.88 L103.5,134.17 L105,134.52 L106.5,134.45 L108,134.11 L109.5,133.81 L111,133.54 L112.5,133.29 L114,133.07 L115.5,132.86 L117,132.67 L118.5,132.49 L120,132.33 L121.5,132.19 L123,132.05 L124.5,131.93 L126,131.81 L127.5,131.71 L129,131.62 L130.5,131.54 L132,131.46 L133.5,131.4 L135,131.03 L136.5,130.57 L138,130.2 L139.5,129.92 L141,129.7 L142.5,129.55 L144,129.46 L145.5,129.43 L147,129.46 L148.5,129.56 L150,129.71 L151.5,129.93 L153,130.23 L154.5,130.6 L156,131.06 L157.5,131.49 L159,131.56 L160.5,131.65 L162,131.74 L163.5,131.85 L165,131.97 L166.5,132.09 L168,132.23 L169.5,132.38 L171,132.55 L172.5,132.73 L174,132.92 L175.5,133.14 L177,133.37 L178.5,133.62 L180,133.91 L181.5,134.22 L183,134.57 L184.5,134.96 L186,135.39 L187.5,135.27 L189,135.16 L190.5,135.07 L192,135 L193.5,134.94 L195,134.81 L196.5,134.44 L198,134.16 L199.5,133.96 L201,133.82 L202.5,133.75 L204,133.73 L205.5,133.78 L207,133.88 L208.5,134.05 L210,134.29 L211.5,134.61 L213,135.04 L214.5,135.26 L216,135.03 L217.5,134.77 L219,134.53 L220.5,134.31 L222,134.11 L223.5,133.93 L225,133.76 L226.5,133.6 L228,133.45 L229.5,133.31 L231,133.18 L232.5,133.06 L234,132.95 L235.5,132.85 L237,132.75 L238.5,132.66 L240,132.58 L241.5,132.51 L243,132.44 L244.5,132.37 L246,132.31 L247.5,132.26 L249,132.22 L250.5,132.17 L252,132.14 L253.5,132.11 L255,132.08 L256.5,132.06 L258,132.05 L259.5,132.03 L261,132.03 L262.5,132.03 L264,132.03 L265.5,132.04 L267,132.06 L268.5,132.08 L270,132.1 L271.5,132.13 L273,132.16 L274.5,132.21 L276,132.25 L277.5,132.3 L279,132.36 L280.5,132.42 L282,132.49 L283.5,132.56 L285,132.64 L286.5,132.73 L288,132.83 L289.5,132.93 L291,133.04 L292.5,133.16 L294,133.28 L295.5,133.42 L297,133.56 L298.5,133.72 L300,133.89 L301.5,134.07 L303,134.27 L304.5,134.48 L306,134.71 L307.5,134.97 L309,135.25 L310.5,135.57 L312,135.94 L313.5,136.37 L315,136.93 L316.5,137.81 L318,138.74 L319.5,138.74 L321,138.74 L322.5,138.74 L324,138.74 L325.5,138.74 L327,138.74 L328.5,138.74 L330,138.74 L331.5,138.74 L333,138.74 L334.5,138.74 L336,138.74 L337.5,138.74 L339,138.74 L340.5,138.74 L342,138.74 L343.5,138.74 L345,138.74 L346.5,138.74 L348,138.74 L349.5,138.74 L351,138.74 L352.5,138.74 L354,138.74 L355.5,138.74 L357,138.74 L358.5,138.74 L360,138.74 L361.5,138.74 L363,138.74 L364.5,138.74 L366,138.74 L367.5,138.74 L369,138.74 L370.5,138.74 L372,138.74 L373.5,138.74 L375,138.74 L376.5,138.74 L378,138.74 L379.5,138.74 L381,138.74 L382.5,138.74 L384,138.74 L385.5,138.74 L387,138.74 L388.5,138.74 L390,138.74 L391.5,138.74 L393,138.74 L394.5,138.74 L396,138.74 L397.5,138.74 L399,138.74 L400.5,137.7 L402,136.88 L403.5,136.35 L405,135.93 L406.5,135.58 L408,135.27 L409.5,135.01 L411,134.77 L412.5,134.56 L414,134.36 L415.5,134.19 L417,134.03 L418.5,133.88 L420,133.75 L421.5,133.63 L423,133.53 L424.5,133.43 L426,133.34 L427.5,133.26 L429,133.2 L430.5,133.14 L432,133.09 L433.5,133.04 L435,133.01 L436.5,132.98 L438,132.85 L439.5,132.48 L441,132.19 L442.5,131.96" fill="none" stroke="#000" stroke-width="0.67"/><path d="M0,136.19 L1.5,136.37 L3,136.63 L4.5,136.95 L6,137.37 L7.5,137.89 L9,138.54 L10.5,139.4 L12,140.62 L13.5,141.25 L15,140.76 L16.5,139.67 L18,138.85 L19.5,138.18 L21,137.6 L22.5,137.09 L24,136.63 L25.5,136.21 L27,135.84 L28.5,135.49 L30,135.18 L31.5,134.89 L33,134.62 L34.5,134.37 L36,134.14 L37.5,133.93 L39,133.73 L40.5,133.55 L42,133.38 L43.5,133.23 L45,133.09 L46.5,132.97 L48,132.86 L49.5,132.75 L51,132.66 L52.5,132.59 L54,132.52 L55.5,132.46 L57,132.42 L58.5,132.38 L60,132.36 L61.5,132.34 L63,132.34 L64.5,132.35 L66,132.37 L67.5,132.39 L69,132.43 L70.5,132.48 L72,132.54 L73.5,132.61 L75,132.69 L76.5,132.79 L78,132.89 L79.5,133.01 L81,133.14 L82.5,133.28 L84,133.44 L85.5,133.61 L87,133.79 L88.5,134 L90,134.21 L91.5,134.45 L93,134.71 L94.5,134.98 L96,135.28 L97.5,135.61 L99,135.96 L100.5,136.35 L102,136.78 L103.5,137.25 L105,137.79 L106.5,138.4 L108,139.11 L109.5,140 L111,141.25 L112.5,142.73 L114,142.41 L115.5,142.18 L117,142.02 L118.5,141.9 L120,141.81 L121.5,141.75 L123,141.71 L124.5,141.7 L126,141.71 L127.5,141.74 L129,141.8 L130.5,141.89 L132,142.01 L133.5,142.16 L135,142.38 L136.5,142.69 L138,143.31 L139.5,143.6 L141,143.6 L142.5,143.6 L144,143.6 L145.5,143.6 L147,143.6 L148.5,143.6 L150,143.6 L151.5,143.6 L153,143.6 L154.5,143.6 L156,143.6 L157.5,141.89 L159,140.31 L160.5,139.29 L162,138.5 L163.5,137.84 L165,137.27 L166.5,136.76 L168,136.31 L169.5,135.89 L171,135.52 L172.5,135.17 L174,134.86 L175.5,134.56 L177,134.29 L178.5,134.04 L180,133.82 L181.5,133.6 L183,132.97 L184.5,132.07 L186,131.32 L187.5,130.7 L189,130.18 L190.5,129.76 L192,129.43 L193.5,129.19 L195,129.02 L196.5,128.92 L198,128.9 L199.5,128.95 L201,129.08 L202.5,129.28 L204,129.56 L205.5,129.93 L207,130.38 L208.5,130.94 L210,131.62 L211.5,132.13 L213,132.18 L214.5,132.23 L216,132.3 L217.5,132.38 L219,132.47 L220.5,132.57 L222,132.69 L223.5,132.82 L225,132.96 L226.5,133.11 L228,133.28 L229.5,133.47 L231,133.67 L232.5,133.89 L234,134.12 L235.5,134.28 L237,134 L238.5,133.77 L240,133.58 L241.5,133.43 L243,132.85 L244.5,132.46 L246,132.28 L247.5,132.3 L249,132.52 L250.5,132.95 L252,133.36 L253.5,133.49 L255,133.66 L256.5,133.87 L258,134.12 L259.5,134.41 L261,134.76 L262.5,135.17 L264,135.63 L265.5,136.18 L267,136.83 L268.5,137.6 L270,138.55 L271.5,139.84 L273,141.26 L274.5,141.37 L276,141.51 L277.5,141.25 L279,140.82 L280.5,140.5 L282,140.27 L283.5,140.11 L285,139.66 L286.5,138.72 L288,137.97 L289.5,137.35 L291,136.82 L292.5,136.36 L294,135.97 L295.5,135.62 L297,135.31 L298.5,135.05 L300,134.82 L301.5,134.62 L303,134.46 L304.5,134.32 L306,134.21 L307.5,134.13 L309,134.07 L310.5,134.04 L312,134.04 L313.5,134.06 L315,134.11 L316.5,134.18 L318,134.28 L319.5,134.41 L321,134.56 L322.5,134.75 L324,134.96 L325.5,135.21 L327,135.5 L328.5,135.83 L330,136.21 L331.5,136.65 L333,137.15 L334.5,137.73 L336,138.43 L337.5,139.29 L339,140.45 L340.5,142.73 L342,143.6 L343.5,143.6 L345,143.6 L346.5,143.6 L348,143.6 L349.5,143.6 L351,143.6 L352.5,143.6 L354,143.6 L355.5,143.6 L357,143.6 L358.5,143.6 L360,143.6 L361.5,143.6 L363,143.6 L364.5,143.6 L366,143.6 L367.5,143.6 L369,143.6 L370.5,143.6 L372,143.6 L373.5,143.6 L375,143.6 L376.5,143.6 L378,143.6 L379.5,143.6 L381,141.8 L382.5,140.91 L384,140.26 L385.5,139.74 L387,139.3 L388.5,138.92 L390,138.58 L391.5,138.28 L393,138 L394.5,137.75 L396,137.53 L397.5,137.32 L399,137.13 L400.5,136.95 L402,136.8 L403.5,136.65 L405,136.52 L406.5,136.4 L408,136.3 L409.5,136.2 L411,136.12 L412.5,136.04 L414,135.98 L415.5,135.92 L417,135.88 L418.5,135.85 L420,135.82 L421.5,135.81 L423,135.8 L424.5,135.8 L426,135.82 L427.5,135.84 L429,135.87 L430.5,135.91 L432,135.96 L433.5,136.02 L435,136.1 L436.5,136.18 L438,136.27 L439.5,136.37 L441,136.49 L442.5,136.62 L441.07,560.15 L0,560.15Z" fill="#fff" stroke="none"/><path d="M0,136.19 L1.5,136.37 L3,136.63 L4.5,136.95 L6,137.37 L7.5,137.89 L9,138.54 L10.5,139.4 L12,140.62 L13.5,141.25 L15,140.76 L16.5,139.67 L18,138.85 L19.5,138.18 L21,137.6 L22.5,137.09 L24,136.63 L25.5,136.21 L27,135.84 L28.5,135.49 L30,135.18 L31.5,134.89 L33,134.62 L34.5,134.37 L36,134.14 L37.5,133.93 L39,133.73 L40.5,133.55 L42,133.38 L43.5,133.23 L45,133.09 L46.5,132.97 L48,132.86 L49.5,132.75 L51,132.66 L52.5,132.59 L54,132.52 L55.5,132.46 L57,132.42 L58.5,132.38 L60,132.36 L61.5,132.34 L63,132.34 L64.5,132.35 L66,132.37 L67.5,132.39 L69,132.43 L70.5,132.48 L72,132.54 L73.5,132.61 L75,132.69 L76.5,132.79 L78,132.89 L79.5,133.01 L81,133.14 L82.5,133.28 L84,133.44 L85.5,133.61 L87,133.79 L88.5,134 L90,134.21 L91.5,134.45 L93,134.71 L94.5,134.98 L96,135.28 L97.5,135.61 L99,135.96 L100.5,136.35 L102,136.78 L103.5,137.25 L105,137.79 L106.5,138.4 L108,139.11 L109.5,140 L111,141.25 L112.5,142.73 L114,142.41 L115.5,142.18 L117,142.02 L118.5,141.9 L120,141.81 L121.5,141.75 L123,141.71 L124.5,141.7 L126,141.71 L127.5,141.74 L129,141.8 L130.5,141.89 L132,142.01 L133.5,142.16 L135,142.38 L136.5,142.69 L138,143.31 L139.5,143.6 L141,143.6 L142.5,143.6 L144,143.6 L145.5,143.6 L147,143.6 L148.5,143.6 L150,143.6 L151.5,143.6 L153,143.6 L154.5,143.6 L156,143.6 L157.5,141.89 L159,140.31 L160.5,139.29 L162,138.5 L163.5,137.84 L165,137.27 L166.5,136.76 L168,136.31 L169.5,135.89 L171,135.52 L172.5,135.17 L174,134.86 L175.5,134.56 L177,134.29 L178.5,134.04 L180,133.82 L181.5,133.6 L183,132.97 L184.5,132.07 L186,131.32 L187.5,130.7 L189,130.18 L190.5,129.76 L192,129.43 L193.5,129.19 L195,129.02 L196.5,128.92 L198,128.9 L199.5,128.95 L201,129.08 L202.5,129.28 L204,129.56 L205.5,129.93 L207,130.38 L208.5,130.94 L210,131.62 L211.5,132.13 L213,132.18 L214.5,132.23 L216,132.3 L217.5,132.38 L219,132.47 L220.5,132.57 L222,132.69 L223.5,132.82 L225,132.96 L226.5,133.11 L228,133.28 L229.5,133.47 L231,133.67 L232.5,133.89 L234,134.12 L235.5,134.28 L237,134 L238.5,133.77 L240,133.58 L241.5,133.43 L243,132.85 L244.5,132.46 L246,132.28 L247.5,132.3 L249,132.52 L250.5,132.95 L252,133.36 L253.5,133.49 L255,133.66 L256.5,133.87 L258,134.12 L259.5,134.41 L261,134.76 L262.5,135.17 L264,135.63 L265.5,136.18 L267,136.83 L268.5,137.6 L270,138.55 L271.5,139.84 L273,141.26 L274.5,141.37 L276,141.51 L277.5,141.25 L279,140.82 L280.5,140.5 L282,140.27 L283.5,140.11 L285,139.66 L286.5,138.72 L288,137.97 L289.5,137.35 L291,136.82 L292.5,136.36 L294,135.97 L295.5,135.62 L297,135.31 L298.5,135.05 L300,134.82 L301.5,134.62 L303,134.46 L304.5,134.32 L306,134.21 L307.5,134.13 L309,134.07 L310.5,134.04 L312,134.04 L313.5,134.06 L315,134.11 L316.5,134.18 L318,134.28 L319.5,134.41 L321,134.56 L322.5,134.75 L324,134.96 L325.5,135.21 L327,135.5 L328.5,135.83 L330,136.21 L331.5,136.65 L333,137.15 L334.5,137.73 L336,138.43 L337.5,139.29 L339,140.45 L340.5,142.73 L342,143.6 L343.5,143.6 L345,143.6 L346.5,143.6 L348,143.6 L349.5,143.6 L351,143.6 L352.5,143.6 L354,143.6 L355.5,143.6 L357,143.6 L358.5,143.6 L360,143.6 L361.5,143.6 L363,143.6 L364.5,143.6 L366,143.6 L367.5,143.6 L369,143.6 L370.5,143.6 L372,143.6 L373.5,143.6 L375,143.6 L376.5,143.6 L378,143.6 L379.5,143.6 L381,141.8 L382.5,140.91 L384,140.26 L385.5,139.74 L387,139.3 L388.5,138.92 L390,138.58 L391.5,138.28 L393,138 L394.5,137.75 L396,137.53 L397.5,137.32 L399,137.13 L400.5,136.95 L402,136.8 L403.5,136.65 L405,136.52 L406.5,136.4 L408,136.3 L409.5,136.2 L411,136.12 L412.5,136.04 L414,135.98 L415.5,135.92 L417,135.88 L418.5,135.85 L420,135.82 L421.5,135.81 L423,135.8 L424.5,135.8 L426,135.82 L427.5,135.84 L429,135.87 L430.5,135.91 L432,135.96 L433.5,136.02 L435,136.1 L436.5,136.18 L438,136.27 L439.5,136.37 L441,136.49 L442.5,136.62" fill="none" stroke="#000" stroke-width="0.75"/><path d="M0,138.68 L1.5,138.81 L3,139 L4.5,138.8 L6,138.18 L7.5,137.83 L9,137.72 L10.5,137.84 L12,138.2 L13.5,138.82 L15,139.77 L16.5,141.15 L18,143.3 L19.5,148.81 L21,148.81 L22.5,148.81 L24,148.81 L25.5,148.81 L27,147.49 L28.5,145.31 L30,144.09 L31.5,143.17 L33,142.42 L34.5,141.79 L36,141.24 L37.5,140.76 L39,140.34 L40.5,139.96 L42,139.63 L43.5,139.34 L45,139.08 L46.5,138.85 L48,138.65 L49.5,138.48 L51,138.34 L52.5,138.22 L54,138.13 L55.5,138.06 L57,138.02 L58.5,138 L60,138 L61.5,138.03 L63,138.07 L64.5,138.15 L66,138.24 L67.5,138.37 L69,138.51 L70.5,138.69 L72,138.89 L73.5,139.13 L75,139.39 L76.5,139.69 L78,140.03 L79.5,140.42 L81,140.85 L82.5,141.35 L84,141.91 L85.5,142.56 L87,143.34 L88.5,144.3 L90,145.62 L91.5,148.81 L93,148.81 L94.5,148.81 L96,148.81 L97.5,148.81 L99,148.81 L100.5,148.81 L102,148.81 L103.5,148.81 L105,148.81 L106.5,148.81 L108,147.4 L109.5,146.77 L111,146.32 L112.5,145.96 L114,145.67 L115.5,145.43 L117,145.22 L118.5,145.05 L120,144.9 L121.5,144.78 L123,144.68 L124.5,144.59 L126,144.05 L127.5,143.23 L129,142.55 L130.5,141.98 L132,141.48 L133.5,141.04 L135,140.66 L136.5,140.32 L138,140.02 L139.5,139.75 L141,139.52 L142.5,139.32 L144,139.15 L145.5,139 L147,138.89 L148.5,138.79 L150,138.72 L151.5,138.67 L153,138.39 L154.5,138.17 L156,138.01 L157.5,137.92 L159,137.88 L160.5,137.89 L162,137.97 L163.5,138.1 L165,138.29 L166.5,138.35 L168,138.28 L169.5,138.22 L171,138.17 L172.5,138.12 L174,138.09 L175.5,138.06 L177,138.04 L178.5,138.03 L180,138.02 L181.5,138.03 L183,138.04 L184.5,138.06 L186,138.09 L187.5,138.12 L189,138.17 L190.5,138.22 L192,138.28 L193.5,138.35 L195,138.43 L196.5,138.47 L198,138.4 L199.5,138.35 L201,138.3 L202.5,138.27 L204,138.24 L205.5,138.23 L207,138.24 L208.5,138.25 L210,138.28 L211.5,138.31 L213,138.36 L214.5,138.42 L216,138.5 L217.5,138.59 L219,138.69 L220.5,138.8 L222,138.93 L223.5,139.07 L225,139.22 L226.5,139.4 L228,139.59 L229.5,139.79 L231,140.02 L232.5,140.27 L234,140.53 L235.5,140.81 L237,140.88 L238.5,140.96 L240,141.04 L241.5,141.12 L243,141.21 L244.5,141.31 L246,141.41 L247.5,141.52 L249,141.64 L250.5,141.76 L252,141.88 L253.5,142.02 L255,142.16 L256.5,142.32 L258,142.48 L259.5,142.65 L261,142.83 L262.5,143.02 L264,143.22 L265.5,142.76 L267,142.35 L268.5,141.99 L270,141.68 L271.5,141.4 L273,140.5 L274.5,139.81 L276,139.31 L277.5,138.97 L279,138.77 L280.5,138.7 L282,138.76 L283.5,138.94 L285,139.27 L286.5,139.76 L288,140.14 L289.5,140.08 L291,139.4 L292.5,138.9 L294,138.55 L295.5,138.34 L297,138.26 L298.5,138.3 L300,138.47 L301.5,138.78 L303,139.23 L304.5,139.84 L306,139.9 L307.5,139.81 L309,139.75 L310.5,139.72 L312,139.72 L313.5,139.74 L315,139.79 L316.5,139.86 L318,139.97 L319.5,140.1 L321,140.26 L322.5,140.46 L324,140.69 L325.5,140.96 L327,141.27 L328.5,141.63 L330,142.04 L331.5,142.51 L333,143.07 L334.5,143.74 L336,143.94 L337.5,144.08 L339,144.22 L340.5,144.38 L342,144.55 L343.5,144.74 L345,144.94 L346.5,145.17 L348,145.42 L349.5,145.71 L351,146.03 L352.5,146.41 L354,146.89 L355.5,147.56 L357,148.81 L358.5,148.81 L360,148.81 L361.5,148.81 L363,148.81 L364.5,148.81 L366,148.81 L367.5,148.81 L369,148.81 L370.5,148.81 L372,148.81 L373.5,146.6 L375,145.37 L376.5,144.51 L378,143.84 L379.5,143.28 L381,142.8 L382.5,142.39 L384,142.03 L385.5,141.71 L387,141.43 L388.5,141.18 L390,140.97 L391.5,140.78 L393,140.62 L394.5,140.48 L396,140.37 L397.5,140.28 L399,140.21 L400.5,140.16 L402,140.14 L403.5,140.07 L405,139.72 L406.5,139.46 L408,139.28 L409.5,139.18 L411,139.16 L412.5,139.2 L414,139.33 L415.5,139.53 L417,139.81 L418.5,140.19 L420,140.15 L421.5,139.8 L423,139.49 L424.5,139.24 L426,139.03 L427.5,138.87 L429,138.74 L430.5,138.65 L432,138.61 L433.5,138.59 L435,138.62 L436.5,138.68 L438,138.78 L439.5,138.92 L441,139.1 L442.5,139.33 L441.07,560.15 L0,560.15Z" fill="#fff" stroke="none"/><path d="M0,138.68 L1.5,138.81 L3,139 L4.5,138.8 L6,138.18 L7.5,137.83 L9,137.72 L10.5,137.84 L12,138.2 L13.5,138.82 L15,139.77 L16.5,141.15 L18,143.3 L19.5,148.81 L21,148.81 L22.5,148.81 L24,148.81 L25.5,148.81 L27,147.49 L28.5,145.31 L30,144.09 L31.5,143.17 L33,142.42 L34.5,141.79 L36,141.24 L37.5,140.76 L39,140.34 L40.5,139.96 L42,139.63 L43.5,139.34 L45,139.08 L46.5,138.85 L48,138.65 L49.5,138.48 L51,138.34 L52.5,138.22 L54,138.13 L55.5,138.06 L57,138.02 L58.5,138 L60,138 L61.5,138.03 L63,138.07 L64.5,138.15 L66,138.24 L67.5,138.37 L69,138.51 L70.5,138.69 L72,138.89 L73.5,139.13 L75,139.39 L76.5,139.69 L78,140.03 L79.5,140.42 L81,140.85 L82.5,141.35 L84,141.91 L85.5,142.56 L87,143.34 L88.5,144.3 L90,145.62 L91.5,148.81 L93,148.81 L94.5,148.81 L96,148.81 L97.5,148.81 L99,148.81 L100.5,148.81 L102,148.81 L103.5,148.81 L105,148.81 L106.5,148.81 L108,147.4 L109.5,146.77 L111,146.32 L112.5,145.96 L114,145.67 L115.5,145.43 L117,145.22 L118.5,145.05 L120,144.9 L121.5,144.78 L123,144.68 L124.5,144.59 L126,144.05 L127.5,143.23 L129,142.55 L130.5,141.98 L132,141.48 L133.5,141.04 L135,140.66 L136.5,140.32 L138,140.02 L139.5,139.75 L141,139.52 L142.5,139.32 L144,139.15 L145.5,139 L147,138.89 L148.5,138.79 L150,138.72 L151.5,138.67 L153,138.39 L154.5,138.17 L156,138.01 L157.5,137.92 L159,137.88 L160.5,137.89 L162,137.97 L163.5,138.1 L165,138.29 L166.5,138.35 L168,138.28 L169.5,138.22 L171,138.17 L172.5,138.12 L174,138.09 L175.5,138.06 L177,138.04 L178.5,138.03 L180,138.02 L181.5,138.03 L183,138.04 L184.5,138.06 L186,138.09 L187.5,138.12 L189,138.17 L190.5,138.22 L192,138.28 L193.5,138.35 L195,138.43 L196.5,138.47 L198,138.4 L199.5,138.35 L201,138.3 L202.5,138.27 L204,138.24 L205.5,138.23 L207,138.24 L208.5,138.25 L210,138.28 L211.5,138.31 L213,138.36 L214.5,138.42 L216,138.5 L217.5,138.59 L219,138.69 L220.5,138.8 L222,138.93 L223.5,139.07 L225,139.22 L226.5,139.4 L228,139.59 L229.5,139.79 L231,140.02 L232.5,140.27 L234,140.53 L235.5,140.81 L237,140.88 L238.5,140.96 L240,141.04 L241.5,141.12 L243,141.21 L244.5,141.31 L246,141.41 L247.5,141.52 L249,141.64 L250.5,141.76 L252,141.88 L253.5,142.02 L255,142.16 L256.5,142.32 L258,142.48 L259.5,142.65 L261,142.83 L262.5,143.02 L264,143.22 L265.5,142.76 L267,142.35 L268.5,141.99 L270,141.68 L271.5,141.4 L273,140.5 L274.5,139.81 L276,139.31 L277.5,138.97 L279,138.77 L280.5,138.7 L282,138.76 L283.5,138.94 L285,139.27 L286.5,139.76 L288,140.14 L289.5,140.08 L291,139.4 L292.5,138.9 L294,138.55 L295.5,138.34 L297,138.26 L298.5,138.3 L300,138.47 L301.5,138.78 L303,139.23 L304.5,139.84 L306,139.9 L307.5,139.81 L309,139.75 L310.5,139.72 L312,139.72 L313.5,139.74 L315,139.79 L316.5,139.86 L318,139.97 L319.5,140.1 L321,140.26 L322.5,140.46 L324,140.69 L325.5,140.96 L327,141.27 L328.5,141.63 L330,142.04 L331.5,142.51 L333,143.07 L334.5,143.74 L336,143.94 L337.5,144.08 L339,144.22 L340.5,144.38 L342,144.55 L343.5,144.74 L345,144.94 L346.5,145.17 L348,145.42 L349.5,145.71 L351,146.03 L352.5,146.41 L354,146.89 L355.5,147.56 L357,148.81 L358.5,148.81 L360,148.81 L361.5,148.81 L363,148.81 L364.5,148.81 L366,148.81 L367.5,148.81 L369,148.81 L370.5,148.81 L372,148.81 L373.5,146.6 L375,145.37 L376.5,144.51 L378,143.84 L379.5,143.28 L381,142.8 L382.5,142.39 L384,142.03 L385.5,141.71 L387,141.43 L388.5,141.18 L390,140.97 L391.5,140.78 L393,140.62 L394.5,140.48 L396,140.37 L397.5,140.28 L399,140.21 L400.5,140.16 L402,140.14 L403.5,140.07 L405,139.72 L406.5,139.46 L408,139.28 L409.5,139.18 L411,139.16 L412.5,139.2 L414,139.33 L415.5,139.53 L417,139.81 L418.5,140.19 L420,140.15 L421.5,139.8 L423,139.49 L424.5,139.24 L426,139.03 L427.5,138.87 L429,138.74 L430.5,138.65 L432,138.61 L433.5,138.59 L435,138.62 L436.5,138.68 L438,138.78 L439.5,138.92 L441,139.1 L442.5,139.33" fill="none" stroke="#000" stroke-width="0.84"/><path d="M0,154.34 L1.5,154.34 L3,154.34 L4.5,154.34 L6,154.34 L7.5,154.34 L9,154.34 L10.5,154.34 L12,154.34 L13.5,154.34 L15,154.34 L16.5,154.34 L18,154.34 L19.5,154.34 L21,154.34 L22.5,154.34 L24,154.34 L25.5,154.34 L27,154.34 L28.5,154.34 L30,154.34 L31.5,154.34 L33,154.34 L34.5,154.34 L36,154.34 L37.5,154.34 L39,154.34 L40.5,154.34 L42,154.34 L43.5,154.34 L45,154.34 L46.5,154.34 L48,154.34 L49.5,154.34 L51,151.64 L52.5,149.48 L54,148.07 L55.5,146.97 L57,146.05 L58.5,145.26 L60,144.56 L61.5,143.94 L63,143.39 L64.5,142.88 L66,142.43 L67.5,142.02 L69,141.64 L70.5,141.31 L72,141 L73.5,140.72 L75,140.48 L76.5,140.25 L78,140.06 L79.5,139.89 L81,139.74 L82.5,139.62 L84,139.51 L85.5,139.43 L87,139.37 L88.5,139.34 L90,139.32 L91.5,139.33 L93,139.35 L94.5,139.4 L96,139.47 L97.5,139.56 L99,139.67 L100.5,139.81 L102,139.96 L103.5,139.28 L105,138.36 L106.5,137.61 L108,137.01 L109.5,136.54 L111,136.19 L112.5,135.96 L114,135.84 L115.5,135.83 L117,135.93 L118.5,136.13 L120,136.46 L121.5,136.9 L123,137.48 L124.5,138.2 L126,139.08 L127.5,140.16 L129,141.48 L130.5,142.46 L132,142.46 L133.5,142.47 L135,142.49 L136.5,142.51 L138,142.54 L139.5,142.58 L141,142.62 L142.5,142.67 L144,142.72 L145.5,142.78 L147,142.85 L148.5,142.93 L150,143.01 L151.5,143.1 L153,143.2 L154.5,143.3 L156,143.42 L157.5,143.54 L159,143.67 L160.5,143.81 L162,143.95 L163.5,144.11 L165,144.28 L166.5,144.46 L168,144.65 L169.5,144.85 L171,145.06 L172.5,145.29 L174,145.53 L175.5,145.78 L177,146.06 L178.5,146.35 L180,146.66 L181.5,147 L183,147.36 L184.5,147.75 L186,148.1 L187.5,148.16 L189,148.24 L190.5,148.33 L192,148.44 L193.5,148.56 L195,148.35 L196.5,148.06 L198,147.8 L199.5,147.57 L201,147.37 L202.5,147.19 L204,147.04 L205.5,146.9 L207,146.79 L208.5,146.69 L210,146.61 L211.5,146.55 L213,146.51 L214.5,146.48 L216,146.47 L217.5,146.48 L219,146.5 L220.5,146.54 L222,146.6 L223.5,146.67 L225,146.76 L226.5,146.88 L228,147.01 L229.5,147.16 L231,147.33 L232.5,147.53 L234,147.75 L235.5,148 L237,148.28 L238.5,148.6 L240,148.96 L241.5,149.38 L243,149.86 L244.5,150.01 L246,149.98 L247.5,149.96 L249,149.95 L250.5,149.96 L252,149.99 L253.5,150.04 L255,150.11 L256.5,150.19 L258,150.29 L259.5,150.42 L261,150.57 L262.5,150.74 L264,150.95 L265.5,151.03 L267,150.97 L268.5,150.92 L270,150.88 L271.5,150.84 L273,150.82 L274.5,150.81 L276,150.8 L277.5,150.81 L279,150.82 L280.5,150.84 L282,150.8 L283.5,150.63 L285,150.47 L286.5,150.33 L288,150.2 L289.5,150.08 L291,149.98 L292.5,149.89 L294,149.8 L295.5,149.73 L297,149.66 L298.5,149.6 L300,149.55 L301.5,149.51 L303,149.47 L304.5,149.44 L306,149.42 L307.5,149.41 L309,149.41 L310.5,149.41 L312,149.42 L313.5,149.43 L315,149.45 L316.5,149.48 L318,149.52 L319.5,149.57 L321,149.62 L322.5,149.68 L324,149.75 L325.5,149.83 L327,149.92 L328.5,150.02 L330,150.13 L331.5,150.25 L333,150.38 L334.5,150.53 L336,150.69 L337.5,150.87 L339,151.07 L340.5,151.29 L342,151.55 L343.5,151.85 L345,152.2 L346.5,152.64 L348,153.29 L349.5,154.34 L351,154.34 L352.5,154.34 L354,154.34 L355.5,154.34 L357,154.34 L358.5,154.34 L360,154.34 L361.5,154.34 L363,154.34 L364.5,154.34 L366,154.34 L367.5,154.34 L369,154.34 L370.5,154.34 L372,154.34 L373.5,154.34 L375,154.34 L376.5,154.34 L378,154.34 L379.5,154.34 L381,154.34 L382.5,154.34 L384,154.34 L385.5,154.34 L387,154.34 L388.5,154.34 L390,154.34 L391.5,154.34 L393,154.34 L394.5,154.34 L396,154.34 L397.5,154.34 L399,154.34 L400.5,154.34 L402,154.34 L403.5,154.34 L405,154.34 L406.5,154.34 L408,154.34 L409.5,154.34 L411,154.34 L412.5,154.34 L414,154.34 L415.5,152.03 L417,150.35 L418.5,149.23 L420,148.36 L421.5,146.27 L423,144.34 L424.5,142.98 L426,142.01 L427.5,141.33 L429,140.9 L430.5,140.69 L432,140.7 L433.5,140.93 L435,141.39 L436.5,142.1 L438,143.11 L439.5,143.39 L441,143.24 L442.5,143.12 L441.07,560.15 L0,560.15Z" fill="#fff" stroke="none"/><path d="M0,154.34 L1.5,154.34 L3,154.34 L4.5,154.34 L6,154.34 L7.5,154.34 L9,154.34 L10.5,154.34 L12,154.34 L13.5,154.34 L15,154.34 L16.5,154.34 L18,154.34 L19.5,154.34 L21,154.34 L22.5,154.34 L24,154.34 L25.5,154.34 L27,154.34 L28.5,154.34 L30,154.34 L31.5,154.34 L33,154.34 L34.5,154.34 L36,154.34 L37.5,154.34 L39,154.34 L40.5,154.34 L42,154.34 L43.5,154.34 L45,154.34 L46.5,154.34 L48,154.34 L49.5,154.34 L51,151.64 L52.5,149.48 L54,148.07 L55.5,146.97 L57,146.05 L58.5,145.26 L60,144.56 L61.5,143.94 L63,143.39 L64.5,142.88 L66,142.43 L67.5,142.02 L69,141.64 L70.5,141.31 L72,141 L73.5,140.72 L75,140.48 L76.5,140.25 L78,140.06 L79.5,139.89 L81,139.74 L82.5,139.62 L84,139.51 L85.5,139.43 L87,139.37 L88.5,139.34 L90,139.32 L91.5,139.33 L93,139.35 L94.5,139.4 L96,139.47 L97.5,139.56 L99,139.67 L100.5,139.81 L102,139.96 L103.5,139.28 L105,138.36 L106.5,137.61 L108,137.01 L109.5,136.54 L111,136.19 L112.5,135.96 L114,135.84 L115.5,135.83 L117,135.93 L118.5,136.13 L120,136.46 L121.5,136.9 L123,137.48 L124.5,138.2 L126,139.08 L127.5,140.16 L129,141.48 L130.5,142.46 L132,142.46 L133.5,142.47 L135,142.49 L136.5,142.51 L138,142.54 L139.5,142.58 L141,142.62 L142.5,142.67 L144,142.72 L145.5,142.78 L147,142.85 L148.5,142.93 L150,143.01 L151.5,143.1 L153,143.2 L154.5,143.3 L156,143.42 L157.5,143.54 L159,143.67 L160.5,143.81 L162,143.95 L163.5,144.11 L165,144.28 L166.5,144.46 L168,144.65 L169.5,144.85 L171,145.06 L172.5,145.29 L174,145.53 L175.5,145.78 L177,146.06 L178.5,146.35 L180,146.66 L181.5,147 L183,147.36 L184.5,147.75 L186,148.1 L187.5,148.16 L189,148.24 L190.5,148.33 L192,148.44 L193.5,148.56 L195,148.35 L196.5,148.06 L198,147.8 L199.5,147.57 L201,147.37 L202.5,147.19 L204,147.04 L205.5,146.9 L207,146.79 L208.5,146.69 L210,146.61 L211.5,146.55 L213,146.51 L214.5,146.48 L216,146.47 L217.5,146.48 L219,146.5 L220.5,146.54 L222,146.6 L223.5,146.67 L225,146.76 L226.5,146.88 L228,147.01 L229.5,147.16 L231,147.33 L232.5,147.53 L234,147.75 L235.5,148 L237,148.28 L238.5,148.6 L240,148.96 L241.5,149.38 L243,149.86 L244.5,150.01 L246,149.98 L247.5,149.96 L249,149.95 L250.5,149.96 L252,149.99 L253.5,150.04 L255,150.11 L256.5,150.19 L258,150.29 L259.5,150.42 L261,150.57 L262.5,150.74 L264,150.95 L265.5,151.03 L267,150.97 L268.5,150.92 L270,150.88 L271.5,150.84 L273,150.82 L274.5,150.81 L276,150.8 L277.5,150.81 L279,150.82 L280.5,150.84 L282,150.8 L283.5,150.63 L285,150.47 L286.5,150.33 L288,150.2 L289.5,150.08 L291,149.98 L292.5,149.89 L294,149.8 L295.5,149.73 L297,149.66 L298.5,149.6 L300,149.55 L301.5,149.51 L303,149.47 L304.5,149.44 L306,149.42 L307.5,149.41 L309,149.41 L310.5,149.41 L312,149.42 L313.5,149.43 L315,149.45 L316.5,149.48 L318,149.52 L319.5,149.57 L321,149.62 L322.5,149.68 L324,149.75 L325.5,149.83 L327,149.92 L328.5,150.02 L330,150.13 L331.5,150.25 L333,150.38 L334.5,150.53 L336,150.69 L337.5,150.87 L339,151.07 L340.5,151.29 L342,151.55 L343.5,151.85 L345,152.2 L346.5,152.64 L348,153.29 L349.5,154.34 L351,154.34 L352.5,154.34 L354,154.34 L355.5,154.34 L357,154.34 L358.5,154.34 L360,154.34 L361.5,154.34 L363,154.34 L364.5,154.34 L366,154.34 L367.5,154.34 L369,154.34 L370.5,154.34 L372,154.34 L373.5,154.34 L375,154.34 L376.5,154.34 L378,154.34 L379.5,154.34 L381,154.34 L382.5,154.34 L384,154.34 L385.5,154.34 L387,154.34 L388.5,154.34 L390,154.34 L391.5,154.34 L393,154.34 L394.5,154.34 L396,154.34 L397.5,154.34 L399,154.34 L400.5,154.34 L402,154.34 L403.5,154.34 L405,154.34 L406.5,154.34 L408,154.34 L409.5,154.34 L411,154.34 L412.5,154.34 L414,154.34 L415.5,152.03 L417,150.35 L418.5,149.23 L420,148.36 L421.5,146.27 L423,144.34 L424.5,142.98 L426,142.01 L427.5,141.33 L429,140.9 L430.5,140.69 L432,140.7 L433.5,140.93 L435,141.39 L436.5,142.1 L438,143.11 L439.5,143.39 L441,143.24 L442.5,143.12" fill="none" stroke="#000" stroke-width="0.85"/><path d="M0,160.15 L1.5,160.15 L3,160.15 L4.5,160.15 L6,160.15 L7.5,160.15 L9,160.15 L10.5,160.15 L12,160.15 L13.5,160.15 L15,160.15 L16.5,160.15 L18,160.15 L19.5,160.15 L21,160.15 L22.5,160.15 L24,160.15 L25.5,160.15 L27,160.15 L28.5,160.15 L30,160.15 L31.5,160.15 L33,160.15 L34.5,160.15 L36,160.15 L37.5,160.15 L39,160.15 L40.5,160.15 L42,160.15 L43.5,160.15 L45,160.15 L46.5,160.15 L48,160.15 L49.5,160.15 L51,160.15 L52.5,160.15 L54,160.15 L55.5,160.15 L57,160.15 L58.5,160.15 L60,160.15 L61.5,160.15 L63,160.15 L64.5,160.15 L66,160.15 L67.5,160.15 L69,160.15 L70.5,160.15 L72,160.15 L73.5,160.15 L75,160.15 L76.5,160.15 L78,160.15 L79.5,160.15 L81,160.15 L82.5,160.15 L84,160.15 L85.5,160.15 L87,160.15 L88.5,160.15 L90,160.15 L91.5,160.15 L93,160.15 L94.5,160.15 L96,160.15 L97.5,160.15 L99,160.15 L100.5,160.15 L102,160.15 L103.5,160.15 L105,160.15 L106.5,160.15 L108,160.15 L109.5,160.15 L111,160.15 L112.5,160.15 L114,160.15 L115.5,160.15 L117,160.15 L118.5,160.15 L120,160.15 L121.5,160.15 L123,160.15 L124.5,160.15 L126,160.15 L127.5,160.15 L129,160.15 L130.5,160.15 L132,160.15 L133.5,160.15 L135,160.15 L136.5,160.15 L138,160.15 L139.5,160.15 L141,160.15 L142.5,160.15 L144,160.15 L145.5,160.15 L147,160.15 L148.5,160.15 L150,160.15 L151.5,160.15 L153,160.15 L154.5,160.15 L156,160.15 L157.5,160.15 L159,160.15 L160.5,160.15 L162,160.15 L163.5,160.15 L165,160.15 L166.5,160.15 L168,160.15 L169.5,160.15 L171,160.15 L172.5,160.15 L174,160.15 L175.5,160.15 L177,160.15 L178.5,160.15 L180,160.15 L181.5,157.94 L183,156.87 L184.5,156.1 L186,155.48 L187.5,154.96 L189,154.51 L190.5,154.12 L192,153.77 L193.5,153.45 L195,153.17 L196.5,152.92 L198,152.7 L199.5,152.5 L201,152.32 L202.5,152.16 L204,152.02 L205.5,151.9 L207,151.8 L208.5,151.71 L210,151.64 L211.5,151.58 L213,151.54 L214.5,151.52 L216,151.51 L217.5,151.52 L219,151.54 L220.5,151.57 L222,151.62 L223.5,151.69 L225,151.78 L226.5,151.88 L228,151.99 L229.5,152.13 L231,152.28 L232.5,152.46 L234,152.66 L235.5,152.87 L237,152.83 L238.5,152.76 L240,152.69 L241.5,152.64 L243,152.6 L244.5,152.57 L246,152.55 L247.5,152.53 L249,152.53 L250.5,152.54 L252,152.08 L253.5,151.44 L255,150.97 L256.5,150.62 L258,150.39 L259.5,150.28 L261,150.27 L262.5,150.37 L264,150.58 L265.5,150.9 L267,151.18 L268.5,151.09 L270,151.01 L271.5,150.95 L273,150.9 L274.5,150.86 L276,150.84 L277.5,150.83 L279,150.84 L280.5,150.85 L282,150.88 L283.5,150.92 L285,150.98 L286.5,151.05 L288,151.13 L289.5,151.23 L291,151.27 L292.5,151.24 L294,151.22 L295.5,151.2 L297,151.2 L298.5,151.2 L300,151.21 L301.5,151.23 L303,151.26 L304.5,151.3 L306,151.35 L307.5,151.41 L309,151.48 L310.5,151.55 L312,151.64 L313.5,151.74 L315,151.85 L316.5,151.97 L318,152.07 L319.5,152.05 L321,152.03 L322.5,152.01 L324,152 L325.5,152 L327,152 L328.5,152.01 L330,152.02 L331.5,152.04 L333,152.06 L334.5,152.09 L336,152.13 L337.5,152.17 L339,152.22 L340.5,152.27 L342,152.33 L343.5,152.4 L345,152.47 L346.5,152.55 L348,152.64 L349.5,152.74 L351,152.84 L352.5,152.95 L354,153.07 L355.5,153.19 L357,153.33 L358.5,153.48 L360,153.63 L361.5,153.8 L363,153.98 L364.5,154.17 L366,154.38 L367.5,154.6 L369,154.84 L370.5,155.1 L372,155.39 L373.5,155.7 L375,156.05 L376.5,156.44 L378,156.9 L379.5,157.45 L381,158.16 L382.5,159.43 L384,160.15 L385.5,160.15 L387,160.15 L388.5,160.15 L390,160.15 L391.5,160.15 L393,160.15 L394.5,160.15 L396,160.15 L397.5,160.15 L399,160.15 L400.5,160.15 L402,160.15 L403.5,160.15 L405,160.15 L406.5,160.15 L408,160.15 L409.5,160.15 L411,160.15 L412.5,160.15 L414,160.15 L415.5,160.15 L417,160.15 L418.5,160.15 L420,160.15 L421.5,160.15 L423,159.27 L424.5,157.14 L426,156.04 L427.5,155.22 L429,154.56 L430.5,154.01 L432,153.54 L433.5,153.13 L435,152.78 L436.5,152.47 L438,152.2 L439.5,151.97 L441,151.78 L442.5,151.61 L441.07,560.15 L0,560.15Z" fill="#fff" stroke="none"/><path d="M0,160.15 L1.5,160.15 L3,160.15 L4.5,160.15 L6,160.15 L7.5,160.15 L9,160.15 L10.5,160.15 L12,160.15 L13.5,160.15 L15,160.15 L16.5,160.15 L18,160.15 L19.5,160.15 L21,160.15 L22.5,160.15 L24,160.15 L25.5,160.15 L27,160.15 L28.5,160.15 L30,160.15 L31.5,160.15 L33,160.15 L34.5,160.15 L36,160.15 L37.5,160.15 L39,160.15 L40.5,160.15 L42,160.15 L43.5,160.15 L45,160.15 L46.5,160.15 L48,160.15 L49.5,160.15 L51,160.15 L52.5,160.15 L54,160.15 L55.5,160.15 L57,160.15 L58.5,160.15 L60,160.15 L61.5,160.15 L63,160.15 L64.5,160.15 L66,160.15 L67.5,160.15 L69,160.15 L70.5,160.15 L72,160.15 L73.5,160.15 L75,160.15 L76.5,160.15 L78,160.15 L79.5,160.15 L81,160.15 L82.5,160.15 L84,160.15 L85.5,160.15 L87,160.15 L88.5,160.15 L90,160.15 L91.5,160.15 L93,160.15 L94.5,160.15 L96,160.15 L97.5,160.15 L99,160.15 L100.5,160.15 L102,160.15 L103.5,160.15 L105,160.15 L106.5,160.15 L108,160.15 L109.5,160.15 L111,160.15 L112.5,160.15 L114,160.15 L115.5,160.15 L117,160.15 L118.5,160.15 L120,160.15 L121.5,160.15 L123,160.15 L124.5,160.15 L126,160.15 L127.5,160.15 L129,160.15 L130.5,160.15 L132,160.15 L133.5,160.15 L135,160.15 L136.5,160.15 L138,160.15 L139.5,160.15 L141,160.15 L142.5,160.15 L144,160.15 L145.5,160.15 L147,160.15 L148.5,160.15 L150,160.15 L151.5,160.15 L153,160.15 L154.5,160.15 L156,160.15 L157.5,160.15 L159,160.15 L160.5,160.15 L162,160.15 L163.5,160.15 L165,160.15 L166.5,160.15 L168,160.15 L169.5,160.15 L171,160.15 L172.5,160.15 L174,160.15 L175.5,160.15 L177,160.15 L178.5,160.15 L180,160.15 L181.5,157.94 L183,156.87 L184.5,156.1 L186,155.48 L187.5,154.96 L189,154.51 L190.5,154.12 L192,153.77 L193.5,153.45 L195,153.17 L196.5,152.92 L198,152.7 L199.5,152.5 L201,152.32 L202.5,152.16 L204,152.02 L205.5,151.9 L207,151.8 L208.5,151.71 L210,151.64 L211.5,151.58 L213,151.54 L214.5,151.52 L216,151.51 L217.5,151.52 L219,151.54 L220.5,151.57 L222,151.62 L223.5,151.69 L225,151.78 L226.5,151.88 L228,151.99 L229.5,152.13 L231,152.28 L232.5,152.46 L234,152.66 L235.5,152.87 L237,152.83 L238.5,152.76 L240,152.69 L241.5,152.64 L243,152.6 L244.5,152.57 L246,152.55 L247.5,152.53 L249,152.53 L250.5,152.54 L252,152.08 L253.5,151.44 L255,150.97 L256.5,150.62 L258,150.39 L259.5,150.28 L261,150.27 L262.5,150.37 L264,150.58 L265.5,150.9 L267,151.18 L268.5,151.09 L270,151.01 L271.5,150.95 L273,150.9 L274.5,150.86 L276,150.84 L277.5,150.83 L279,150.84 L280.5,150.85 L282,150.88 L283.5,150.92 L285,150.98 L286.5,151.05 L288,151.13 L289.5,151.23 L291,151.27 L292.5,151.24 L294,151.22 L295.5,151.2 L297,151.2 L298.5,151.2 L300,151.21 L301.5,151.23 L303,151.26 L304.5,151.3 L306,151.35 L307.5,151.41 L309,151.48 L310.5,151.55 L312,151.64 L313.5,151.74 L315,151.85 L316.5,151.97 L318,152.07 L319.5,152.05 L321,152.03 L322.5,152.01 L324,152 L325.5,152 L327,152 L328.5,152.01 L330,152.02 L331.5,152.04 L333,152.06 L334.5,152.09 L336,152.13 L337.5,152.17 L339,152.22 L340.5,152.27 L342,152.33 L343.5,152.4 L345,152.47 L346.5,152.55 L348,152.64 L349.5,152.74 L351,152.84 L352.5,152.95 L354,153.07 L355.5,153.19 L357,153.33 L358.5,153.48 L360,153.63 L361.5,153.8 L363,153.98 L364.5,154.17 L366,154.38 L367.5,154.6 L369,154.84 L370.5,155.1 L372,155.39 L373.5,155.7 L375,156.05 L376.5,156.44 L378,156.9 L379.5,157.45 L381,158.16 L382.5,159.43 L384,160.15 L385.5,160.15 L387,160.15 L388.5,160.15 L390,160.15 L391.5,160.15 L393,160.15 L394.5,160.15 L396,160.15 L397.5,160.15 L399,160.15 L400.5,160.15 L402,160.15 L403.5,160.15 L405,160.15 L406.5,160.15 L408,160.15 L409.5,160.15 L411,160.15 L412.5,160.15 L414,160.15 L415.5,160.15 L417,160.15 L418.5,160.15 L420,160.15 L421.5,160.15 L423,159.27 L424.5,157.14 L426,156.04 L427.5,155.22 L429,154.56 L430.5,154.01 L432,153.54 L433.5,153.13 L435,152.78 L436.5,152.47 L438,152.2 L439.5,151.97 L441,151.78 L442.5,151.61" fill="none" stroke="#000" stroke-width="0.85"/></svg>